<?xml version="1.0" encoding="utf-8"?>
<!-- Generator: Adobe Illustrator 18.1.1, SVG Export Plug-In . SVG Version: 6.00 Build 0)  -->
<svg version="1.1" xmlns="http://www.w3.org/2000/svg" xmlns:xlink="http://www.w3.org/1999/xlink" x="0px" y="0px"
	 viewBox="0 0 800 1280" enable-background="new 0 0 800 1280" xml:space="preserve">
<g id="Layer_1">
	<g id="Layer_1_1_" display="none">
		<path display="inline" d="M80,492.6h93.1v437.3H80V492.6z M695.7,711.5c0,131.8-96.3,226.2-228.8,226.2
			c-131.8,0-228.2-94.4-228.2-226.2S335,485.3,466.9,485.3C599.2,485.4,695.7,579.8,695.7,711.5z M599.8,711.5
			c0-81.9-52.5-143.5-133.1-143.5s-132.5,61.6-132.5,143.5c0,81.3,51.8,143.5,132.5,143.5C547.5,855.2,599.8,793,599.8,711.5z
			 M630.1,399.5l-82.6-57.3H364.3l-82.6,57.3H80v58.7h217.6l82.6-57.3H532l82.6,57.3h105.6v-58.7H630.1z"/>
	</g>
	<g id="Layer_2" display="none">
		<path display="inline" d="M329.8,821.6h140.3V541h140.3L400,330.4L189.4,541h140.3V821.6z M677.3,821.6v85.3H122.7v-85.3H80v85.3
			v42.7h42.7h554.7H720v-42.7v-85.3H677.3z"/>
	</g>
	<g id="Layer_3" display="none">
		<path display="inline" d="M455.2,708.6v-73.4H217.1V859h238.1v-86.7h168.6v37.3H720v173.3H455.2v-86.7h-279V507.7H80V297.1h169.6
			v37.1h95.2v173.3H217.1v91.4h238.1v-101h168.6V535H720v173.3H455.2V708.6z"/>
	</g>
	<g id="Layer_4" display="none">
		<g display="inline">
			<g>
				<path d="M334.4,449.3C184.8,449.3,64,541.8,64,657.6c0,57.1,28.5,107.5,75.7,146.1c-1.8,38.6-11.8,84-38.7,110.9
					c53.8,0,107.5-33.6,142.9-60.5c28.5,8.3,58.7,11.8,90.7,11.8c149.6,0,272.2-92.3,272.2-208.3S484,449.3,334.4,449.3z"/>
				<path d="M695.7,677.8c23.5-30.2,35.4-65.6,35.4-104.2c0-114.2-121-208.3-270.4-208.3c-65.6,0-127.7,18.6-173,48.8
					c21.9-5.1,45.3-6.7,68.8-6.7c161.3,0,292.3,102.6,292.3,230.2c0,48.6-20.2,95.8-55.5,132.6c35.4,26.9,89.1,60.5,142.9,60.5
					C697.3,793.8,694.1,714.7,695.7,677.8z"/>
			</g>
		</g>
	</g>
	<g id="Layer_5" display="none">
		<g id="Layer_1_4_" display="inline">
			<path d="M720,484.8v368.5c0,16-12.5,29.1-27.7,29.1H107.7c-15.4,0-27.7-13-27.7-29.1V426.7c0-16,12.5-29.1,27.7-29.1h138.9
				l55.4,58.2h390.2C707.5,455.7,720,468.8,720,484.8z"/>
		</g>
	</g>
	<g id="Layer_6" display="none">
		<g id="settings_copy_2_4_" display="inline">
			<g>
				<path d="M400,576.6c-35.4,0-64.2,28.8-64.2,64.2c0,35.4,28.8,64.2,64.2,64.2s64.2-28.8,64.2-64.2
					C464.2,605.4,435.4,576.6,400,576.6z M668.6,577.4h-33.4c-5.3-19.7-13-38.6-22.7-56l30.1-30.1c20-20,20-52.5,0-72.6l-18.1-18.1
					c-20-20-52.5-20-72.6,0l-29.6,29.6c-18.1-10.6-37.6-18.7-58.2-24.3v-34.6c0-28.3-23-51.4-51.4-51.4H387
					c-28.3,0-51.4,23-51.4,51.4v34.6c-20.6,5.6-40.2,13.8-58.2,24.3l-29.6-29.6c-20-20-52.5-20-72.6,0l-18.1,18.1
					c-20,20-20,52.5,0,72.6l30.1,30.1c-9.8,17.4-17.4,36.2-22.7,56h-33.1c-28.3,0-51.4,23-51.4,51.4v25.6c0,28.3,23,51.4,51.4,51.4
					h33.9c5.4,20,13.4,38.9,23.5,56.3l-31.4,31.4c-20,20-20,52.5,0,72.6l18.1,18.1c20,20,52.5,20,72.6,0l31.5-31.5
					c17.4,9.9,36.3,17.8,56.2,23v32.8c0,28.3,23,51.4,51.4,51.4h25.6c28.3,0,51.4-23,51.4-51.4v-32.8c19.8-5.4,38.7-13.1,56.2-23
					l31.5,31.5c20,20,52.5,20,72.6,0l18.1-18.1c20-20,20-52.5,0-72.6l-31.4-31.4c10.1-17.6,18.1-36.5,23.5-56.3h33.9
					c28.3,0,51.4-23,51.4-51.4v-25.6C720,600.5,697,577.4,668.6,577.4z M400,783.5c-77.9,0-141.1-63.2-141.1-141.1
					S322.1,501.3,400,501.3s141.1,63.2,141.1,141.1S477.9,783.5,400,783.5z"/>
			</g>
		</g>
	</g>
	<g id="Layer_7" display="none">
		<path display="inline" d="M725.1,592.5L549.8,719.7l67.5,206.2c3.2,10.9-0.6,22.6-10.2,29.6c-4.5,3.8-9.6,5.8-15.4,5.8
			s-10.9-1.9-16-5.1L400,829L224.6,956.2c-4.5,3.2-9.6,5.1-15.4,5.1c-10.9,0-22.6-8.3-25.8-19.2c-1.9-5.1-1.9-10.2,0-16l66.9-206.2
			L74.9,592.5c-9.6-7.7-12.8-19.2-9.6-30.9c3.2-11.7,13.4-17.9,25.8-17.9h216.5l66.9-206.2c4.5-10.9,13.4-18.6,25.8-18.6
			c12.3,0,21.3,7.7,25.8,18.6l66.9,206.2h216.5c12.8,0,22.6,6.4,25.8,17.9C738.2,573.1,734.7,584.8,725.1,592.5z"/>
	</g>
	<g id="Layer_8" display="none">
		<path display="inline" d="M155.7,312v656h-51.8V312H155.7z M191.7,312v388.3l504.5-194.2L191.7,312z"/>
	</g>
	<g id="Layer_9" display="none">
		<path display="inline" d="M155.7,312v656h-51.8V312H155.7z M696.8,506.2L192.3,700.3V312L696.8,506.2z M244.2,625l308.3-118.7
			L244.2,387.5V625z"/>
	</g>
	<g id="Layer_10" display="none">
		<path display="inline" d="M76.5,347.8l-0.5,216c0,7.8,4,12,12,12h220c7.8,0,12-4,12-12c0-3.8,0-7.8-4-7.8l-64-64
			c40-36.2,91.8-56.2,147.8-56.2c116,0,208,92,208,204c-3.8,112-95.8,204-211.8,204V960c180,0,327.8-144,327.8-320
			S580.2,320,400.2,320c-83.8,0-168,36-228,92l-68-68c-0.6-1-1.4-1.4-2.1-1.9c-2.1-4.3-6.7-7.4-12-7.4
			C82.6,334.6,76.5,340.3,76.5,347.8C76.5,347.8,76.5,348,76.5,347.8z"/>
	</g>
	<g id="Layer_11" display="none">
		<path display="inline" d="M719.5,351.4c0-7.4-5.9-13-13.3-13c-5.3,0-9.8,3-11.8,7.4c-0.6,0.5-1.4,1-2.1,1.9l-67.2,67.2
			C565.9,359.5,482.9,324,400,324C222.1,323.8,80,466.2,80,640s146.1,316.2,323.8,316.2V841.3c-114.6,0-205.4-90.9-209.3-201.4
			c0-110.6,90.9-201.4,205.4-201.4c55.4,0,106.6,19.7,146.1,55.4L482.9,557c-4,0-4,4-4,7.8c0,7.8,4,11.8,11.8,11.8H708
			c7.8,0,11.8-4,11.8-11.8L719.5,351.4C719.5,351.7,719.5,351.4,719.5,351.4z"/>
	</g>
	<g id="Layer_12" display="none">
		<path display="inline" d="M217.1,960H80V822.9L217.1,960z M720,457.1L262.9,914.2L125.8,777.1L582.9,320L720,457.1z"/>
	</g>
	<g id="Layer_13" display="none">
		<g display="inline">
			<rect x="218.6" y="459.4" width="406.9" height="40.2"/>
			<rect x="218.6" y="551" width="406.9" height="40.2"/>
			<rect x="218.6" y="646.6" width="271.4" height="40.2"/>
			<path d="M80,317.3v645.4h64.3l128.5-134.1H720V317.3H80z M679.8,788.6h-424L120.2,930.1V357.4H680v431.2H679.8z"/>
		</g>
	</g>
	<g id="Layer_14" display="none">
		<g display="inline">
			<path d="M609.9,766.1c-28.8,0-55.4,9.8-76.6,26.1L314.1,660.6c1.1-6.7,1.8-13.6,1.8-20.6s-0.8-13.9-1.8-20.6l219.2-131.5
				c21.3,16.3,47.7,26.1,76.6,26.1c69.6,0,126.1-56.5,126.1-126.1s-56.5-126.1-126.1-126.1S484,318.4,484,388c0,7,0.8,13.9,1.8,20.6
				L266.6,540.2c-21.3-16.3-47.7-26.1-76.6-26.1C120.5,513.9,64,570.4,64,640s56.5,126.1,126.1,126.1c28.8,0,55.4-9.8,76.6-26.1
				l219.2,131.5c-1.1,6.7-1.8,13.6-1.8,20.6c0,69.6,56.5,126.1,126.1,126.1S736,961.6,736,892S679.5,766.1,609.9,766.1z"/>
		</g>
	</g>
	<g id="Layer_15" display="none">
		<g display="inline">
			<polygon points="329.8,363.2 470.1,363.2 470.1,613.9 610.4,613.9 400,824.5 189.4,613.9 329.8,613.9 			"/>
			<polygon points="677.3,788.8 677.3,874.1 122.7,874.1 122.7,788.8 80,788.8 80,874.1 80,916.8 122.7,916.8 677.3,916.8 
				720,916.8 720,874.1 720,788.8 			"/>
		</g>
	</g>
	<g id="Layer_16" display="none">
		<g display="inline">
			<g>
				<g>
					<path d="M434.6,334.2v611.5H720L434.6,334.2z M478.9,533.9l171.5,367.5H478.9V533.9z"/>
				</g>
			</g>
			<g>
				<polygon points="365.4,945.8 365.4,334.2 80,945.8 				"/>
			</g>
		</g>
	</g>
	<g id="Layer_17" display="none">
		<g display="inline">
			<polygon points="94.2,320 94.2,605.4 705.8,605.4 			"/>
			<path d="M94.2,960l611.5-285.4H94.2V960z M138.6,718.9h367.5L138.6,890.4V718.9z"/>
		</g>
	</g>
	<g id="Layer_18" display="none">
		<path display="inline" d="M615.2,626.6h-31.5V521.3c0-52.5-20-100.5-52.8-135.7c-32.6-35-79.5-57.8-130.9-57.6
			c-51.5-0.2-98.2,22.6-130.9,57.6c-33,35.2-52.8,83.2-52.8,135.7v105.3h-31.7c-13,0-23.5,10.6-23.5,23.5v278.2
			c0,13.3,10.7,23.7,23.5,23.7h430.6c13.1,0,23.7-10.6,23.7-23.7V650.1C638.9,637.1,628.3,626.6,615.2,626.6L615.2,626.6z
			 M303.5,521.3c0-30.2,11.5-57.1,29.3-76.2c17.9-19,41.3-29.9,67.2-29.9c25.8,0,49.1,10.9,67.2,29.9c17.9,19,29.3,45.9,29.3,76.2
			v105.3h-193V521.3z"/>
	</g>
	<g id="Layer_19" display="none">
		<g display="inline">
			<path d="M367,732.5L260.5,917.3h352.8L720,732.5H367z M689.8,680l-183-317.1H293.3L476.5,680H689.8z M263,415.4L80,732.5
				l106.7,184.8l182.9-317.1L263,415.4z"/>
		</g>
	</g>
	<g id="Layer_20" display="none">
		<g id="Layer_1_2_" display="inline">
			<path id="USER_2_" d="M720,919.8c0,0,0-109.3-79.8-149.1c-50.6-25.1-31-5.9-93.1-31.7S470.4,705,470.4,705l-0.5-58.9
				c0,0,23.2-17.6,30.4-73.4c14.6,4.2,19.5-17.1,20.2-30.6c0.8-13.1,8.6-53.9-9.1-50.2c3.7-27.2,6.6-51.8,5.1-65
				c-4.5-45.8-36.2-93.6-116-97.1c-67.8,3.5-112,51.4-116.3,97.1c-1.3,13,1.3,37.6,5,65c-17.8-3.7-10.1,37.1-9.3,50.2
				c0.8,13.6,5.6,34.7,20.2,30.6c7.2,55.7,30.4,73.6,30.4,73.6l-0.5,59.2c0,0-14.7,9-76.6,34.6c-62.1,25.8-42.6,5.3-93.1,30.4
				c-80,39.7-80,149-80,149l0,0l0,0c0,16.6,13.4,29.9,29.9,29.9h580C706.6,949.9,720,936.5,720,919.8L720,919.8L720,919.8z"/>
		</g>
	</g>
	<g id="Layer_21" display="none">
		<path display="inline" d="M521.6,640L704,457.6L582.4,336L400,518.4L217.6,336L96,457.6L278.4,640L96,822.4L217.6,944L400,761.6
			L582.4,944L704,822.4L521.6,640z"/>
	</g>
	<g id="Layer_22" display="none">
		<path display="inline" d="M739.8,363.4L463.4,640L740,916.6L676.6,980L400,703.4L123.5,980l-63.4-63.4L336.6,640L60,363.4
			l63.4-63.4L400,576.6L676.3,300L739.8,363.4z"/>
	</g>
	<g id="Layer_23" display="none">
		<path display="inline" d="M334.7,873.6c-7.7,7.7-19.8,7.7-27.5,0l-6.1-6.1l0,0l-6.4-6.6l-28.6-28.6c-0.2,0,0-0.3-0.2-0.3L66.7,632
			c-7.7-7.7-7.7-19.8,0-27.5l41.3-41.3c7.5-7.7,19.8-7.7,27.5,0l185.8,186.6l343.4-343.4c7.7-7.5,20-7.5,27.5,0l41.3,41.3
			c7.7,7.7,7.7,19.8,0,27.5L334.7,873.6L334.7,873.6z"/>
	</g>
	<g id="Layer_24" display="none">
		<path display="inline" d="M720.3,504.2h-640v-91.4h640V504.2z M720.3,595.7h-640V687h640V595.7z M720.3,778.6h-640v91.4h640V778.6
			z"/>
	</g>
	<g id="Layer_25" display="none">
		<g display="inline">
			<path d="M400,373.6c146.9,0,266.4,119.5,266.4,266.4S546.9,906.4,400,906.4S133.6,786.9,133.6,640S253.1,373.6,400,373.6
				 M400,344c-163.5,0-296,132.5-296,296s132.5,296,296,296s296-132.5,296-296S563.5,344,400,344L400,344z"/>
			<g>
				<path d="M433,772.8c0,18.4-14.2,33.1-33.1,33.1c-18.4,0-32.6-14.7-32.6-33.1c0-17.9,14.2-32.6,32.6-32.6
					C418.7,740.2,433,754.9,433,772.8z M418.7,691.4h-38.4L375,473.9h48.3L418.7,691.4z"/>
			</g>
		</g>
	</g>
	<g id="Layer_26" display="none">
		<g display="inline">
			<rect x="-31" y="618.4" transform="matrix(-0.7071 -0.7071 0.7071 -0.7071 230.3783 1375.1876)" width="861.9" height="43"/>
			<rect x="-30.8" y="618.5" transform="matrix(0.7071 -0.7071 0.7071 0.7071 -335.3567 470.3783)" width="861.9" height="43"/>
		</g>
	</g>
	<g id="Layer_27" display="none">
		<g display="inline">
			<rect x="-30.8" y="618.5" transform="matrix(0.7071 -0.7071 0.7071 0.7071 -335.3563 470.3783)" width="861.9" height="43"/>
			<polygon points="677,320 202.9,320 202.9,363 677,363 677,837.1 720,837.1 720,363 720,320 			"/>
		</g>
	</g>
	<g id="Layer_28_1_" display="none">
		<g id="Layer_28_2_" display="inline">
			<path d="M286.7,845.4l249.9-206.2L286.7,432.8v134.6H160v143.4h126.7V845.4z M222.7,354.1v58.7h358.6V867H222.7v58.7H640V354.1
				H222.7z"/>
		</g>
	</g>
	<g id="Layer_29_2_" display="none">
		<g id="Layer_29_1_" display="inline">
			<path d="M396.2,320C222.1,324.5,90.9,450.6,80,622.1c0,5.8,1.3,9.6,3.8,10.9c2.6,1.9,3.8,2.6,4.5,1.9h53.8
				c10.2,0,12.2-6.4,12.2-11.5c9.6-130.6,109.4-225.9,241.9-229.1c69.1,0.6,130.6,28.8,174.7,75.5l-37.1,36.5
				c-7,7.7-7,17.3,3.2,19.8l158.1,32c14.7,3.2,28.8-7,23.7-28.2l-37.1-145.3c-1.9-7-10.2-13.4-18.6-8.3l-41.6,38.4
				C564.5,355.8,485.1,320.6,396.2,320z M711.7,645.1h-53.8c-10.2,0-12.2,6.4-12.2,11.5C636.2,787.2,537,882.6,404.5,885.8
				c-69.8-0.6-131.2-28.8-175.4-75.5l37.8-36.5c7-7.7,6.4-17.3-3.2-19.8l-158.7-32c-14.7-3.2-28.8,7-23.7,28.2l37.1,145.3
				c1.9,7,9.6,13.4,19.2,8.3l41-38.4c57,58.9,136.3,94.1,225.9,94.7c174.1-4.5,304.6-130.6,315.5-302.7c0-5.8-1.3-9-3.8-10.9
				C713.6,645.1,712.3,644.5,711.7,645.1z"/>
		</g>
	</g>
	<g id="Layer_30_2_" display="none">
		<g id="Layer_30_1_" display="inline">
			<path d="M400,360c-154.6,0-280,125.4-280,280s125.4,280,280,280s280-125.4,280-280S554.6,360,400,360z M405.8,891.2
				c-29.9,0-53.3-24.6-53.3-53.9c0-29.9,23.2-53.9,53.3-53.9c30.6,0,54.6,24,54.6,53.9C460.3,866.6,436.3,891.2,405.8,891.2z
				 M444.3,696.3v22.6h-79.2V693c0-113.8,110.4-104.5,110.4-166.9c0-29.3-21.3-46.6-55.8-46.6c-29.9,0-59.2,13.9-84.5,43.8
				L280,480.2c37.3-43.8,85.1-68.5,147-68.5c91,0,137.6,51.2,137.6,107.7C564.8,626.6,444.3,615.8,444.3,696.3z"/>
		</g>
	</g>
	<g id="Layer_31_2_" display="none">
		<g id="Layer_31_1_" display="inline">
			<g>
				<path fill="#231F20" d="M399.7,444c25.4,0,43.2,17.8,43.2,41c0,23.2-17.6,41-43.2,41c-25,0-42.7-17.8-42.7-41
					C357,461.9,374.7,444,399.7,444z M363.4,571h72.8v241.6h-72.8V571z M84.5,579.2c-2.9,17.4-4.5,35-4.5,52.8v16
					c0,172,139.8,312,312,312h16c172,0,312-139.8,312-312v-16c0-172-139.8-312-312-312h-16C239.4,320,110.1,429,84.5,579.2z
					 M120,632c0-15.4,1.3-30.9,3.8-46.1C146.1,455,258.9,360,392,360h16c150.1,0,272,121.9,272,272v16c0,150.1-121.9,272-272,272
					h-16c-150.1,0-272-121.9-272-272V632z"/>
			</g>
		</g>
	</g>
	<g id="Layer_32_1_" display="none">
		<path display="inline" d="M399.5,344.3c-163.5,0-296,132.5-296,296s132.5,296,296,296s296-132.5,296-296
			C695.5,477,562.9,344.3,399.5,344.3z M430.9,671.8v182.1h-31.5l0,0l0,0H368V671.8H185.9v-31.5l0,0l0,0v-31.5H368V426.7h63v182.1
			h182.1v63H430.9z M399.5,640.3L399.5,640.3"/>
	</g>
	<g id="Layer_33_1_" display="none">
		<path display="inline" d="M495.8,603L346.2,349.8c17.6-3.2,35.5-5.4,53.9-5.4c77.9,0,148.2,30.7,201,79.8L495.8,603z M627.2,452.8
			L473.1,714.7h212.5c6.1-23.7,10.6-48.3,10.6-74.1C696.2,569,669.8,504,627.2,452.8z M309.3,359.5c-83.2,27-150.6,90.1-183.2,169.3
			h283.4L309.3,359.5z M493.1,920.3c82.2-27.5,148.8-89.4,181.1-168.6h-281L493.1,920.3z M114.6,566.7
			c-6.1,23.7-10.6,48.2-10.6,73.9c0,72,26.7,137.1,69.4,188.6l154.4-262.4H114.6V566.7z M199.8,857.3
			c52.8,48.6,122.7,79.2,200.3,79.2c19.2,0,38.1-2.1,56.3-5.6L306.2,676.8L199.8,857.3z"/>
	</g>
	<g id="Layer_34_1_" display="none">
		<polygon display="inline" points="296.5,640 560,376.5 560,320 240,640 560,960 560,903.5 		"/>
	</g>
	<g id="Layer_35_1_" display="none">
		<polygon display="inline" points="503.5,640 240,376.5 240,320 560,640 240,960 240,903.5 		"/>
	</g>
	<g id="Layer_37_1_" display="none">
		<g display="inline">
			<path d="M431.4,352H253c-80,0-155.2,60.6-155.2,130.7c0,71.7,54.6,129.6,135.8,129.6c5.6,0,11.2-0.2,16.5-0.5
				c-5.3,10.1-9.1,21.4-9.1,33.3c0,20,10.7,36.2,24.3,49.3c-10.2,0-20.2,0.3-30.9,0.3c-99,0-175.2,63.2-175.2,128.5
				c0,64.5,83.5,104.8,182.7,104.8c113,0,175.4-64,175.4-128.5c0-51.7-15.2-82.6-62.4-116C338.7,672.2,308,644.3,308,628
				c0-19.2,5.4-28.5,34.2-51c29.4-23,50.4-55.5,50.4-93.1c0-45-20-88.6-57.4-103h56.5L431.4,352z M369,788.3
				c1.4,5.9,2.2,12.2,2.2,18.4c0,52-33.6,92.8-129.8,92.8c-68.5,0-117.9-43.4-117.9-95.4c0-51,61.3-93.4,129.8-92.8
				c16,0.2,30.9,2.7,44.3,7C334.9,744.3,361.4,758.9,369,788.3L369,788.3z M259.4,594.2c-45.9-1.4-89.6-51.4-97.6-111.7
				s22.9-106.6,68.8-105.1s89.6,49.8,97.6,110.1S305.3,595.5,259.4,594.2L259.4,594.2z M613.1,479.8V352h-42.6v127.8H442.7v42.6
				h127.8v127.8h42.6V522.4h127.7v-42.6H613.1z"/>
		</g>
	</g>
	<g id="Layer_38_1_" display="none">
		<g display="inline">
			<path d="M450.4,960H330.6V640h-80V529.8h80l-0.2-65c0-89.9,24.3-144.6,130.4-144.6H549v110.2h-55.2c-41.3,0-43.2,15.4-43.2,44.2
				l-0.2,55.2h99.2L537.9,640h-87.4L450.4,960z"/>
		</g>
	</g>
	<g id="Layer_39_1_" display="none">
		<path display="inline" d="M501.4,433.8V392c0-22.1,17.9-40,39.8-40c22.1,0,40,17.9,40,40v41.8c0,22.1-17.9,39.8-40,39.8
			C519.2,473.6,501.4,455.8,501.4,433.8z M683.8,927.8l-40.5,0.2H156.6h-40.5V420.2l81.1,1v20.3c0,33.4,27.2,60.8,60.8,60.8
			s60.8-27.4,60.8-60.8v-20.3h162.2v20.3c0,33.4,27.2,60.8,60.8,60.8s60.8-27.4,60.8-60.8v-20.3h80.5L683.8,927.8z M643.4,563H156.6
			v324.5h486.7V563z M257.4,473.6c22.1,0,40-17.8,40-39.8V392c0-22.1-17.9-40-40-40c-22.1,0-39.8,17.9-39.8,40v41.8
			C217.4,455.8,235.4,473.6,257.4,473.6z M383,606.6h-63.8v56.3H383V606.6z M486.4,606.6h-64v56.3h64V606.6z M582.1,606.6h-63.8
			v56.3h63.8V606.6z M383,700.3h-63.8v56.3H383V700.3z M486.4,700.3h-64v56.3h64V700.3z M582.1,700.3h-63.8v56.3h63.8V700.3z
			 M383,795.8h-63.8v56.3H383V795.8z M281.4,700.3h-63.8v56.3h63.8V700.3z M281.4,795.8h-63.8v56.3h63.8V795.8z M486.4,795.8h-64
			v56.3h64V795.8z M582.1,795.8h-63.8v56.3h63.8V795.8z"/>
	</g>
	<g id="Layer_40_1_" display="none">
		<path display="inline" d="M365.6,669.6c8.3,9.8,20.5,15.8,34.2,16c25.1,0,45.4-20.3,45.6-45.4c0-13.8-6.2-26.1-15.8-34.4
			c0,0,0-0.2-0.2-0.2c0,0-241.6-192.8-248.8-185.4c-7.2,7.2,184.8,249.6,184.8,249.6C365.4,669.6,365.6,669.6,365.6,669.6z M400,344
			c25.1,0,45.6,20.5,45.6,45.6s-20.5,45.6-45.6,45.6s-45.6-20.5-45.6-45.6S374.9,344,400,344z M530.9,374.9
			c-2.1-1-22.2-8.3-33.3,10.1c-15.7,26.2,9,42.4,16.5,46.4C588,471.8,638.2,549.9,638.2,640c0,131.4-106.9,238.2-238.2,238.2
			S161.8,771.4,161.8,640c0-30.2,5.8-59,16.2-85.6c1.3-3.4,14.4-26.2-11-42.2c-17.4-10.9-34.4,1.4-37.8,9.1
			C113,557.6,104,597.8,104,640c0,163.5,132.5,296,296,296s296-132.5,296-296C696,523.5,628.6,423,530.9,374.9z"/>
	</g>
	<g id="Layer_41_1_" display="none">
		<path display="inline" d="M491.2,607.8L644,640.5L134.9,960l183.7-285.6l-152.8-32.6L665.1,320L491.2,607.8z"/>
	</g>
	<g id="Layer_42_1_" display="none">
		<path display="inline" d="M680,640.2c0-103.4-17-209.8-50.7-259l0,0L607,347.2L131.2,622.1c-0.3,0.2-0.8,0.3-1,0.6
			c-6.2,3.5-10.1,10.2-10.1,17.6c0,7.4,3.8,13.9,10.1,17.6c0.5,0.3,1,0.5,1.4,0.8l476.8,274.1l21-33.4l0,0
			C661.1,848,680,743.5,680,640.2z M639.5,640.2c0,144.2-31.4,226.2-48,237.1l-13-7.5c-17-25-41.1-103.4-41.1-229.6
			s24-204.6,41.1-229.8l13-7.5C608.2,414.1,639.5,496,639.5,640.2z M375.2,640.2c0,58.2-16.6,90.2-25.3,97.6l-11.2-6.4
			c-8.8-13.3-20.2-43.4-20.2-91.2c0-47.8,11.4-77.9,20.2-91.2l11.2-6.4C358.6,550.1,375.2,582.1,375.2,640.2z M180.8,640.2
			l103.7-59.8c-4,18.9-6.1,39.4-6.1,59.8s2.1,41,6.1,59.8L180.8,640.2z M385.4,758.4c20-26.1,30.2-72.3,30.2-118.2
			s-10.2-92-30.2-118.1l136-78.6c-16.3,53.8-24.3,126.6-24.3,196.6s7.8,143,24.3,196.6L385.4,758.4z"/>
	</g>
	<g id="Layer_43_1_" display="none">
		<path display="inline" d="M677.1,884.5H122.9c-29,0-52.5-24-52.5-53.6V449.1c0-29.4,23.5-53.6,52.5-53.6h554.4
			c29,0,52.5,24,52.5,53.6V831C729.8,860.5,706.1,884.5,677.1,884.5z M122.9,441.1c-4.3,0-7.7,3.5-7.7,7.8v381.9
			c0,4.3,3.5,7.8,7.7,7.8h554.4c4.3,0,7.7-3.5,7.7-7.8V449.1c0-4.3-3.5-7.8-7.7-7.8H122.9V441.1z M191.4,740.3V518.7h52v221.6H191.4
			z M336.6,745.8c-38.2,0-66.9-14.1-84.8-32l26.7-29.8c15.7,14.4,34.6,22.4,55.8,22.4c21.4,0,34.1-10.2,34.1-26.9
			c0-16-8.2-23.4-38.2-33c-49.9-16-66.9-36.2-66.9-69.1c0-41,36-64.6,80-64.6c32.6,0,56.5,10.2,75.7,28.8l-24.3,28.8
			c-14.7-12.5-30.1-18.6-46.7-18.6c-18.9,0-30.4,7.7-30.4,21.4c0,14.1,7.2,19.5,40.8,30.4c41.1,13.8,64.6,31,64.6,71.7
			C422.9,717,390.6,745.8,336.6,745.8z M526.4,745.8c-61.1,0-97.6-42.2-97.6-116.3c0-72.6,36.5-116.3,97.6-116.3
			S624,555.4,624,629.4C623.8,701.9,587.5,745.8,526.4,745.8z M526.4,552c-28.3,0-43.4,21.1-43.4,77.4c0,56.3,15.4,77.8,43.4,77.8
			c29,0,43.4-21.4,43.4-77.8C569.6,573.1,554.6,552,526.4,552z"/>
	</g>
	<g id="Layer_44_1_" display="none">
		<path display="inline" d="M682.6,884.5h-565c-29.4,0-53.6-24-53.6-53.6V449.1c0-29.4,24-53.6,53.6-53.6h564.8
			c29.4,0,53.6,24,53.6,53.6V831C736,860.5,712,884.5,682.6,884.5z M117.6,441.1c-4.3,0-7.8,3.5-7.8,7.8v381.9
			c0,4.3,3.5,7.8,7.8,7.8h564.8c4.3,0,7.8-3.5,7.8-7.8V449.1c0-4.3-3.5-7.8-7.8-7.8H117.6V441.1z M400,798.6
			c-87.5,0-158.6-71.2-158.6-158.6s71-158.6,158.6-158.6s158.6,71,158.6,158.6S487.5,798.6,400,798.6z M400,527
			c-62.2,0-113,50.7-113,113s50.6,113,113,113s113-50.6,113-113S462.4,527,400,527z M329.9,640c0,38.7,31.4,70.1,70.1,70.1
			s70.1-31.5,70.1-70.1s-31.5-70.1-70.1-70.1S329.9,601.3,329.9,640z"/>
	</g>
	<g id="Layer_45_1_" display="none">
		<path display="inline" d="M206.1,497.9L64,640l142.1,142.2H736V497.9H206.1z"/>
	</g>
	<g id="Layer_46_1_" display="none">
		<g display="inline">
			<rect x="186.6" y="491" width="426.4" height="469"/>
			<polygon points="481.9,362.6 481.9,320 318.1,320 318.1,362.6 144.2,362.6 144.2,447.8 655.8,447.8 655.8,362.6 			"/>
		</g>
	</g>
	<g id="Layer_47_1_" display="none">
		<path display="inline" d="M637.1,749.9v-219c43.2-12.2,74.9-53,74.9-98.4c0-58.6-45.9-104.3-104.5-104.3
			c-47.7,0-87,30.4-98.6,74.9H290.9c-12.2-43.2-53-74.7-98.4-74.7C133.9,328,88,373.9,88,432.3c0,47.8,30.2,87,74.7,98.6v218.2
			c-43.2,12.2-74.7,53-74.7,98.4C88,906.1,133.9,952,192.3,952c47.8,0,87-30.4,98.6-74.9h218.2c12.2,43.2,53,74.9,98.4,74.9
			c58.6,0,104.5-45.9,104.3-105.4C708,803.2,677.8,764.5,637.1,749.9z M562.4,847.7v-29.6H233.9v29.6c0,24.2-21.1,45.3-45.3,45.3
			s-45.3-21.1-45.3-45.3c0-24.2,21.1-45.3,45.3-45.3h29.6V473.9h-29.6c-24.2,0-45.3-21.1-45.3-45.3c0-24.2,21.1-45.3,45.3-45.3
			s45.3,21.1,45.3,45.3v29.6h328.5v-29.6c0-24.2,21.1-45.3,45.3-45.3c24.2,0,45.3,21.1,45.3,45.3c0,24.2-21.1,45.3-45.3,45.3h-29.6
			v328.5h29.6c24.2,0,45.3,21.1,45.3,45.3c0,24.2-21.1,45.3-45.3,45.3C583.5,892.8,562.4,871.7,562.4,847.7z"/>
	</g>
	<g id="Layer_48" display="none">
		<path display="inline" d="M597.8,559.8L597.8,559.8c1.1-8.6,1.8-17,1.8-25.1c0-111.4-90.6-201.9-201.9-201.9
			s-201.9,90.6-201.9,201.9c0,9,0.6,18.1,1.9,27.2C125.9,595,80,666.1,80,745.3c0,111.4,90.6,201.9,201.9,201.9
			c42.9,0,83.5-13.3,118.1-38.4c34.2,24.8,75.8,38.4,118.1,38.4c111.4,0,201.9-90.6,201.9-201.9C720.2,665,671.5,591.5,597.8,559.8z
			 M547.2,534.7l-0.8,10.6c-52-7.5-104.2,5.6-146.2,36.5c-34.2-24.8-75.8-38.4-118.1-38.4c-11,0-22.2,1-33.4,2.9l-0.8-11.5
			c0-82.6,67.2-149.8,149.6-149.8S547.2,452.2,547.2,534.7z M533.3,596.2c-13.6,29.9-36.8,54.9-65.4,70.4
			c-7.2-17.3-16.8-33.3-28.6-48C467.5,600.6,500.3,592.5,533.3,596.2z M262.1,597.1c7-1,13.6-1.4,20.2-1.4c28.2,0,55.2,8,79.2,23.2
			c-12.3,15-22.2,31.8-29.8,50.1C301,653.9,276.5,628.5,262.1,597.1z M484,745L484,745c0-9-0.6-18.1-1.9-27.2
			c46.2-21.4,82.9-59.7,102.2-107C635.5,636,668,687.5,668,745c0.2,40-15.4,77.4-43.7,105.9c-28.3,28.3-65.9,44-105.9,44
			c-28.2,0-55.2-8-79.2-23.4C468.2,835.7,484,791.2,484,745z M361.4,871.5L361.4,871.5c-24.2,15.4-51.4,23.4-79.2,23.4
			c-82.6,0-149.8-67.2-149.8-149.9c0-55.2,30.9-105.9,79.5-132c20.3,47.8,58.2,86.1,106.2,106.7c-1.1,8.8-1.8,17.1-1.8,25.1
			C316.5,791,332.3,835.5,361.4,871.5z M382.6,683.5c4.8-10.7,10.7-20.5,17.6-29.4c6.9,8.8,12.6,18.6,17.4,28.8
			C405.3,684.6,394.1,684.8,382.6,683.5z M368.5,745l0.8-10.6c20.3,2.9,40.8,2.7,61.9-1L432,745c0,32.8-11.2,64.6-31.7,91
			C379.7,809.6,368.5,777.8,368.5,745z"/>
	</g>
	<g id="Layer_49" display="none">
		<g display="inline">
			<polygon points="329.8,363.2 470.1,363.2 470.1,613.9 610.4,613.9 400,824.5 189.4,613.9 329.8,613.9 			"/>
			<polygon points="677.3,788.8 677.3,874.1 122.7,874.1 122.7,788.8 80,788.8 80,874.1 80,916.8 122.7,916.8 677.3,916.8 
				720,916.8 720,874.1 720,788.8 			"/>
		</g>
	</g>
	<g id="Layer_50_1_" display="none">
		<path display="inline" d="M638.2,338.1c-45.4-37.8-83.2-26.6-87-26.6h-3.8L449,436.3l-68.2-53L309,474.1l60.5,49.1L138.9,811
			l26.6,49.1L120,917l68.2,53l45.4-56.8l49.1,22.7l234.6-295l60.5,49.1l71.8-90.7l-68.2-53l98.4-124.8v-3.8
			C680,417.6,683.7,376,638.2,338.1z M271.4,886.7L222.1,864l-37.8,53l-11.4-7.5l37.8-49.1l-26.6-49.1L400,542.4l90.7,71.8
			L271.4,886.7z"/>
	</g>
	<g id="Layer_51_1_" display="none">
		<path display="inline" d="M590.2,490.7L704,377l-39-39L551.2,451.7H284.5V337.8h-74.7v113.8H96v74.7h113.8v302.2H512v113.8h74.7
			V828.5h113.8v-74.7H586.7v-263H590.2z M284.5,529.8H473L284.5,718.2V529.8z M323.5,757.3L512,569v188.5L323.5,757.3L323.5,757.3z"
			/>
	</g>
	<g id="Layer_52_1_" display="none">
		<g display="inline">
			<path d="M712.2,624.2H463c-6.2-28.3-31.5-47.4-63-47.4s-53.6,22.1-63,47.4H87.8c-9.4,0-15.8,6.2-15.8,15.8s6.2,15.8,15.8,15.8
				H337c6.2,28.3,31.5,47.4,63,47.4s53.6-22.1,63-47.4h249.1c9.4,0,15.8-6.2,15.8-15.8S718.6,624.2,712.2,624.2z M400,674.7
				c-12.6,0-22.1-6.2-28.3-15.8c-3.2-6.2-3.2-9.4-3.2-15.8c0-6.2,3.2-9.4,3.2-15.8c6.2-9.4,15.8-15.8,28.3-15.8
				c12.6,0,22.1,6.2,28.3,15.8c3.2,6.2,3.2,9.4,3.2,15.8c0,6.2-3.2,9.4-3.2,15.8C422.1,665.3,409.4,674.7,400,674.7z"/>
			<path d="M712.2,472.8H576.5c-6.2-28.3-31.5-47.4-63-47.4s-53.6,22.1-63,47.4H87.8c-9.4,0-15.8,6.2-15.8,15.8
				c0,9.4,6.2,15.8,15.8,15.8h362.7c6.2,28.3,31.5,47.4,63,47.4s53.6-22.1,63-47.4h135.7c9.4,0,15.8-6.2,15.8-15.8
				C728,479.2,718.6,472.8,712.2,472.8z M513.6,523.4c-12.6,0-22.1-6.2-28.3-15.8c-3.2-6.2-3.2-9.4-3.2-15.8c0-6.4,3.2-9.4,3.2-15.8
				c6.2-9.4,15.8-15.8,28.3-15.8c12.5,0,22.1,6.2,28.3,15.8c3.2,6.2,3.2,9.4,3.2,15.8c0,6.4-3.2,9.4-3.2,15.8
				C535.7,517,526.1,523.4,513.6,523.4z"/>
			<path d="M712.2,775.7H349.6c-6.2-28.3-31.5-47.4-63-47.4s-53.6,22.1-63,47.4H87.8c-9.4,0-15.8,6.2-15.8,15.8
				c0,9.4,6.2,15.8,15.8,15.8h135.7c6.2,28.3,31.5,47.4,63,47.4s53.6-22.1,63-47.4h362.7c9.4,0,15.8-6.2,15.8-15.8
				C728,781.9,718.6,775.7,712.2,775.7z M286.4,826.1c-12.6,0-22.1-6.2-28.3-15.8c-3.2-6.2-3.2-9.4-3.2-15.8c0-6.4,3.2-9.4,3.2-15.8
				c6.2-9.4,15.8-15.8,28.3-15.8c12.5,0,22.1,6.2,28.3,15.8c3.2,6.2,3.2,9.4,3.2,15.8c0,6.4-3.2,9.4-3.2,15.8
				C308.5,816.6,296,826.1,286.4,826.1z"/>
		</g>
	</g>
	<g id="Layer_53_1_" display="none">
		<path display="inline" d="M112,596.6h40c21.6,0,40,18.6,40,40.2c0,21.6-18.4,40.2-40,40.2h-40c-21.6,0-40-18.6-40-40.2
			C72,615.2,90.4,596.6,112,596.6z M198.2,785.4c15.4-15.5,43-15.5,58.6,0s15.4,43.4,0,58.7L229.1,872c-15.4,15.5-43,15.5-58.6,0
			c-15.4-15.5-15.4-43.4,0-58.7L198.2,785.4z M401.6,473c92.3,0,166.2,74.2,166.2,167s-73.9,167-166.2,167s-166.4-74.2-166.4-167
			S312.2,473,401.6,473z M401.6,720.5c46.2,0,83.2-37.1,83.2-83.5c0-46.4-37-83.5-83.2-83.5s-83.2,37.1-83.2,83.5
			C318.4,683.4,355.4,720.5,401.6,720.5z M401.6,847.4c21.6,0,40,18.6,40,40.2v40.2c0,21.6-18.4,40.2-40,40.2s-40-18.6-40-40.2
			v-40.2C361.4,865.9,380,847.4,401.6,847.4z M604.8,785.4l27.7,27.8c15.4,15.5,15.4,43.4,0,58.7c-15.4,15.5-43,15.5-58.6,0
			l-27.7-27.8c-15.4-15.5-15.4-43.4,0-58.7C564.8,769.9,589.4,769.9,604.8,785.4z M607.8,640c0-21.6,18.4-40.2,40-40.2h40
			c21.6,0,40,18.6,40,40.2c0,21.6-18.4,40.2-40,40.2h-40C626.4,680.2,607.8,661.6,607.8,640z M604.8,491.5
			c-15.4,15.5-43,15.5-58.6,0c-15.5-15.5-15.4-43.4,0-58.7l27.7-27.8c15.4-15.5,43-15.5,58.6,0c15.4,15.5,15.4,43.4,0,58.7
			L604.8,491.5z M401.6,432.6c-21.6,0-40-18.6-40-40.2v-40.3c0-21.6,18.4-40.2,40-40.2s40,18.6,40,40.2v40.2
			C444.6,414.1,426.2,432.6,401.6,432.6z M198.2,491.5l-27.7-27.8c-15.4-15.5-15.4-43.4,0-58.7c15.4-15.4,43-15.5,58.6,0l27.7,27.8
			c15.4,15.5,15.4,43.4,0,58.7S213.6,506.9,198.2,491.5z"/>
	</g>
	<g id="Layer_54_1_" display="none">
	</g>
	<g id="Layer_55_1_" display="none">
		<path display="inline" d="M719.7,357.3c-3.8-18.9-26.4-30.2-45.3-26.4c0,0-11.4,3.8-22.6,7.5c-41.4,15-158.4,60.3-233.8,154.6
			V330.9c0-11.4-7.5-18.9-18.9-18.9c-11.4,0-18.9,7.5-18.9,18.9v222.4c-3.8,3.8-3.8,11.4-7.5,15c-26.4,11.4-49,37.8-49,67.8
			c0,18.9,7.5,37.8,22.6,52.8C289.9,824.8,109,877.4,105.1,877.4c-18.9,3.8-30.2,26.4-26.4,45.3c3.8,15,18.9,26.4,37.8,26.4
			c3.8,0,7.5,0,11.4,0c7.5-3.8,165.9-49,252.6-169.6v169.6c0,11.4,7.5,18.9,18.9,18.9c11.4,0,18.9-7.5,18.9-18.9V711.7
			c0-3.8,0-3.8,3.8-7.5c30.2-7.5,56.5-33.9,56.5-67.8c0-22.6-7.5-37.8-22.6-52.8c49-109.3,177.1-162.1,222.4-177.1
			c7.5-3.8,7.5-3.8,11.4-3.8l0,0c3.8,0,3.8,0,3.8,0C715.8,398.7,727.2,376.2,719.7,357.3z M403,681.4c-26.4,0-45.3-18.9-45.3-45.3
			s18.9-45.3,45.3-45.3c26.4,0,45.3,18.9,45.3,45.3C448.3,662.6,429.3,681.4,403,681.4z"/>
	</g>
	<g id="Layer_56_1_" display="none">
		<g display="inline">
			<path d="M400,397C181.3,397,80,640,80,640s105.3,243,320,243s320-243,320-243S614.7,397,400,397z M400,810.1
				c-109.4,0-202.6-77-202.6-174.2S286.6,461.8,400,461.8s202.6,77,202.6,174.2S509.4,810.1,400,810.1z"/>
			<path d="M400,530.6c-12.2,0-24.3,4-36.5,8.2v64.8h-64.8c-4,12.2-8.2,24.3-8.2,36.5c0,60.8,48.6,105.3,105.3,105.3
				c60.8,0,105.3-48.6,105.3-105.3C501.1,583.4,456.6,530.6,400,530.6z"/>
		</g>
	</g>
	<g id="Layer_57_1_" display="none">
		<g display="inline">
			<path d="M639.5,724h-14.2v-3.5V373.6c0-28.6-25-53.6-53.6-53.6H224.8c-28.6,0-53.6,25-53.6,53.6v346.9v3.5h-14.4
				c-21.4,0-39.4,17.9-39.4,39.4l0,0c0,21.4,17.9,39.4,39.4,39.4h182.4l-135.8,93c-17.9,10.7-21.4,32.2-10.7,50.1
				c7.2,10.7,17.9,14.2,28.6,14.2c7.2,0,14.2-3.5,21.4-7.2L371.4,867v57.3c0,21.4,14.2,35.7,35.7,35.7c21.4,0,35.7-14.2,35.7-35.7
				v-60.8L571.4,953c7.2,3.5,14.2,7.2,21.4,7.2c10.7,0,21.4-7.2,28.6-14.2c10.7-17.9,7.2-39.4-10.7-50.1l-135.8-93h168
				c21.4,0,39.4-17.9,39.4-39.4l0,0C678.9,741.9,661,724,639.5,724z M400,395c85.8,0,153.8,68,153.8,153.8s-68,153.8-153.8,153.8
				s-153.8-68-153.8-153.8S314.2,395,400,395z"/>
			<circle cx="400" cy="548.8" r="75"/>
		</g>
	</g>
	<g id="Layer_57_2_" display="none">
		<path display="inline" d="M462.6,678.2l-5.4-2.7V560.8h43.7v-21.9h-43.7V476h43.7v-19.2h-43.7v-62.9h43.7v-19.2h-43.7v-8.2
			c0-30.1-24.6-54.7-54.7-54.7c-30.1,0-54.7,24.6-54.7,54.7v308.8l-5.4,2.7c-54.7,24.6-93,79.2-93,139.4
			c0,84.8,68.3,150.4,150.4,150.4s150.4-68.3,150.4-150.4C555.5,757.6,517.3,702.9,462.6,678.2z M402.4,910.6c-52,0-93-41-93-93
			c0-46.4,32.8-81.9,73.8-90.2V566.2c0-8.2,8.2-16.5,16.5-16.5c8.2,0,16.5,8.2,16.5,16.5v158.6c43.7,8.2,73.8,46.4,73.8,90.2
			C495.4,869.6,454.4,910.6,402.4,910.6z"/>
	</g>
	<g id="Layer_58_1_" display="none">
		<path display="inline" d="M96,336v608h608V336H96z M668.2,908.2H400V371.8h268.2V908.2z"/>
	</g>
	<g id="Layer_59_1_" display="none">
		<path display="inline" d="M400,518.2l96.6,163.8l96.6,163.8H404.2h-189l96.6-163.8L400,518.2 M400,350.2L232,640L64,929.8h336h336
			L568,640L400,350.2L400,350.2z"/>
	</g>
	<g id="Layer_60_1_" display="none">
		<path display="inline" d="M608.5,713.8L399.4,312L190.2,713.8C149.3,853.3,284.6,968,399.4,968
			C514.2,963.8,653.6,857.3,608.5,713.8z M395.4,918.9c-4.2,0-4.2,0-8.2,0c0,0-4.2,0-12.3,0h-4.2c-4.2,0-4.2,0-8.2,0
			s-12.3-4.2-20.5-4.2c-4.2,0-8.2-4.2-8.2-4.2c-4.2,0-8.2-4.2-12.3-4.2c-8.2-4.2-12.3-8.2-20.5-12.3c-8.2-4.2-12.3-12.3-20.5-16.3
			c-8.2-4.2-12.3-12.3-16.3-20.5c-4.2-8.2-12.3-12.3-16.3-20.5c-4.2-8.2-8.2-16.3-12.3-20.5c-4.2-8.2-4.2-16.3-8.2-20.5
			c0-4.2,0-8.2-4.2-8.2c0-4.2,0-8.2,0-8.2c0-4.2,0-12.3,0-16.3c0-4.2,0-8.2,0-12.3c0-8.2,0-12.3,0-12.3s0,4.2,0,12.3
			c0,4.2,0,8.2,4.2,12.3c0,4.2,4.2,8.2,4.2,16.3c0,4.2,4.2,4.2,4.2,8.2c0,4.2,4.2,4.2,4.2,8.2c4.2,4.2,8.2,12.3,12.3,16.3
			c4.2,4.2,8.2,12.3,12.3,16.3c4.2,4.2,12.3,8.2,16.3,12.3c4.2,4.2,12.3,8.2,16.3,12.3c4,4.2,12.3,4.2,16.3,8.2
			c8.2,0,12.3,4.2,16.3,4.2c4.2,0,4.2,0,8.2,0s4.2,0,8.2,0c4.2,0,8.2,0,12.3,0h4.2c4.2,0,4.2,0,4.2,0c8.2,0,12.3,0,12.3,0
			c20.5,0,32.8,12.3,37,28.6C428.2,902.4,415.8,918.9,395.4,918.9z"/>
	</g>
	<g id="Layer_61_1_" display="none">
	</g>
	<g id="Layer_62_1_" display="none">
		<g display="inline">
			<path d="M96,336v608h608V336H96z M668.2,908.2l-78.7-78.7l0,0H214.1l0,0V454.1l0,0l0,0l-78.7-78.7h536.5v533h-3.7V908.2z"/>
			<polygon points="210.4,450.4 317.8,554.2 317.8,554.2 482.2,554.2 482.2,722.2 589.6,825.9 589.6,450.4 			"/>
			<polygon points="482.2,722.2 317.8,554.2 317.8,722.2 			"/>
		</g>
	</g>
	<g id="Layer_63" display="none">
		<path display="inline" d="M1173.4,614.2H1156v17.4v1.8h1.8h17.4V616v-1.8H1173.4z M1158.6,616.8h12.3l-1.8,1.8h-8.8v8.8l-1.8,1.8
			L1158.6,616.8L1158.6,616.8z M1168.5,626.7h-5.6v-5.6h5.6V626.7z"/>
		<g id="Turn_Around._Attribute_as_Freepik_from_Flaticon.com_copy_2_" display="inline">
			<g>
				<path d="M1364.3,554.7c-0.2,0-0.2,0-0.3,0.2l-2.1,2.1c-1.8-1.6-4.3-2.7-6.9-2.7l0,0l0,0l0,0l0,0l0,0l0,0l0,0
					c-5.4,0-9.8,4.3-9.8,9.6c0,5.3,4.5,9.6,9.8,9.6l0,0v-3.5c-3.5,0-6.2-2.7-6.4-6.1c0-3.4,2.7-6.1,6.2-6.1c1.6,0,3.2,0.6,4.5,1.6
					l-1.9,1.9c-0.2,0-0.2,0.2-0.2,0.2c0,0.2,0.2,0.3,0.3,0.3h6.6c0.2,0,0.3-0.2,0.3-0.3V555C1364.5,555,1364.5,554.9,1364.3,554.7z"
					/>
			</g>
		</g>
		<g display="inline">
			<path d="M1010.6,621.6c0-0.2-0.2-0.2-0.2-0.3c-0.2-0.2-0.2-0.3-0.2-0.6c0-0.2-0.2-0.2-0.2-0.3s-0.2-0.5-0.2-0.6
				c0-0.2,0-0.2,0-0.2c0-0.3-0.2-0.6-0.2-1s0-0.6,0.2-1c0-0.2,0-0.2,0-0.2c0-0.2,0.2-0.5,0.2-0.6s0.2-0.2,0.2-0.3
				c0-0.2,0.2-0.3,0.2-0.6c0-0.2,0.2-0.2,0.2-0.3s0.2-0.2,0.2-0.2l-1.6-1c-0.6,1.3-1.1,2.9-1.1,4.3c0,1.6,0.3,3,1.1,4.3l1.6-1
				C1010.7,621.8,1010.6,621.8,1010.6,621.6z"/>
			<path d="M1009.4,613.1L1009.4,613.1l1.6,1l0,0l0,0l0,0l0,0c0-0.2,0.2-0.2,0.2-0.2c0.2-0.2,0.2-0.2,0.2-0.3
				c0.2-0.2,0.2-0.2,0.3-0.5c0.2-0.2,0.2-0.2,0.2-0.2c0.2-0.2,0.3-0.2,0.5-0.3c0.2-0.2,0.2-0.2,0.2-0.2c0.5-0.3,1.1-0.6,1.6-1
				c0.2,0,0.2-0.2,0.2-0.2c0.3-0.2,0.3-0.2,0.6-0.2c0.2,0,0.2,0,0.3-0.2c0.2,0,0.3-0.2,0.6-0.2c0.2,0,0.2,0,0.3,0c0.2,0,0.2,0,0.2,0
				l0,0l0,0V609C1014.1,609.1,1011.2,610.7,1009.4,613.1z"/>
			<path d="M1018.7,610.9c0.3,0,0.3,0.2,0.6,0.2c0.2,0,0.2,0,0.3,0.2c0.3,0,0.3,0.2,0.6,0.2c0.2,0,0.2,0.2,0.2,0.2
				c0.6,0.2,1.1,0.6,1.6,1c0.2,0.2,0.2,0.2,0.3,0.2c0.2,0.2,0.3,0.2,0.5,0.3c0.2,0.2,0.2,0.2,0.2,0.2c0.2,0.2,0.2,0.2,0.3,0.5
				c0.2,0.2,0.2,0.2,0.2,0.3c0,0.2,0.2,0.2,0.2,0.2l0,0l1.6-1c-1.6-2.6-4.5-4.2-7.5-4.3v1.9l0,0l0,0c0.2,0,0.2,0,0.2,0
				C1018.4,610.9,1018.6,610.9,1018.7,610.9z"/>
			<path d="M1016.5,626.1c-0.2,0-0.3-0.2-0.6-0.2c-0.2,0-0.2,0-0.3-0.2c-0.2,0-0.3-0.2-0.6-0.2c-0.2,0-0.3-0.2-0.3-0.2
				c-0.6-0.2-1.1-0.6-1.6-1c-0.2-0.2-0.2-0.2-0.2-0.2c-0.2-0.2-0.3-0.2-0.5-0.3s-0.2-0.2-0.2-0.2c-0.2-0.2-0.2-0.2-0.3-0.5
				c-0.2-0.2-0.2-0.2-0.2-0.3c0-0.2-0.2-0.2-0.2-0.2l0,0l0,0l0,0l0,0l0,0l-1.6,1l0,0c1.6,2.6,4.5,4.2,7.5,4.3v-1.9l0,0l0,0
				c-0.2,0-0.2,0-0.2,0C1016.6,626.1,1016.5,626.1,1016.5,626.1z"/>
			<path d="M1026.1,614.1l-0.3,0.2l-1.3,0.6l0,0l0,0l0,0c0,0.2,0.2,0.2,0.2,0.2s0.2,0.2,0.2,0.3c0.2,0.2,0.2,0.3,0.2,0.6
				c0,0.2,0.2,0.2,0.2,0.3s0.2,0.3,0.2,0.6c0,0.2,0,0.2,0,0.3c0,0.3,0.2,0.6,0.2,1s0,0.6-0.2,1c0,0.2,0,0.2,0,0.3
				c0,0.2-0.2,0.3-0.2,0.6c0,0.2-0.2,0.2-0.2,0.3c0,0.2-0.2,0.3-0.2,0.6c0,0.2-0.2,0.2-0.2,0.3c0,0.2-0.2,0.2-0.2,0.2l0,0l0,0
				l1.3,0.6l0.3,0.2c0.6-1.3,1.1-2.9,1.1-4.3C1027,617,1026.7,615.5,1026.1,614.1z"/>
			<path d="M1023.8,622.7c0,0.2-0.2,0.2-0.2,0.2c-0.2,0.2-0.2,0.2-0.2,0.3c-0.2,0.2-0.2,0.2-0.3,0.5c-0.2,0.2-0.2,0.2-0.2,0.2
				c-0.2,0.2-0.3,0.2-0.5,0.3c-0.2,0.2-0.2,0.2-0.2,0.2c-0.5,0.3-1.1,0.6-1.6,1c-0.2,0-0.2,0.2-0.2,0.2c-0.2,0.2-0.3,0.2-0.6,0.2
				c-0.2,0-0.3,0-0.3,0.2c-0.2,0-0.3,0.2-0.6,0.2c-0.2,0-0.2,0-0.3,0c-0.2,0-0.2,0-0.2,0l0,0l0,0v1.9c3-0.2,5.9-1.8,7.5-4.3l0,0
				L1023.8,622.7L1023.8,622.7z"/>
			<path d="M1013,617.4c0.2-0.2,0.2-0.6,0.2-0.8l0,0l0,0l0,0l-1.4-0.8l-0.2-0.2l0,0l0,0c0,0,0,0.2-0.2,0.2c0,0.2-0.2,0.2-0.2,0.3
				s-0.2,0.3-0.2,0.5c0,0.2-0.2,0.2-0.2,0.3c0,0.2-0.2,0.3-0.2,0.5c0,0.2,0,0.2,0,0.2c0,0.2,0,0.5,0,0.8c0,0.2,0,0.5,0,0.8
				c0,0.2,0,0.2,0,0.2s0.2,0.3,0.2,0.5c0,0.2,0,0.2,0.2,0.3c0,0.2,0.2,0.3,0.2,0.5s0.2,0.2,0.2,0.3c0,0,0,0.2,0.2,0.2l0,0l0,0
				l0.2-0.2l1.4-0.8l0,0l0,0l0,0c-0.2-0.2-0.2-0.5-0.2-0.8c0-0.2,0-0.2,0-0.2c0-0.2-0.2-0.6-0.2-0.8c0-0.2,0-0.6,0.2-0.8
				C1013,617.4,1013,617.4,1013,617.4z"/>
			<path d="M1016.5,612c-0.2,0-0.3,0.2-0.5,0.2s-0.2,0-0.2,0.2c-0.2,0-0.3,0.2-0.5,0.2c-0.2,0-0.2,0-0.2,0.2c-0.5,0.2-1,0.5-1.4,0.8
				c-0.2,0-0.2,0.2-0.2,0.2c-0.2,0.2-0.3,0.2-0.3,0.3s-0.2,0.2-0.2,0.2s-0.2,0.2-0.3,0.3c-0.2,0.2-0.2,0.2-0.2,0.2l-0.2,0.2l0,0l0,0
				l1.1,0.6l0.5,0.2l0,0c0.2-0.2,0.3-0.5,0.6-0.6l0.2-0.2c0.2-0.2,0.5-0.3,0.6-0.5l0,0c0.2-0.2,0.5-0.2,0.6-0.3c0,0,0.2,0,0.2-0.2
				c0.2-0.2,0.6-0.2,0.8-0.2l0,0l0,0l0,0v-1.9l0,0C1016.8,611.8,1016.8,611.8,1016.5,612C1016.8,611.8,1016.6,612,1016.5,612z"/>
			<path d="M1016.2,622.9C1016.2,622.9,1016,622.9,1016.2,622.9c-0.6-0.3-1.1-0.6-1.6-1l-0.2-0.2c-0.2-0.2-0.3-0.3-0.6-0.6l0,0
				l-0.5,0.2l-1.1,0.6l0,0l0,0l0.2,0.2c0.2,0.2,0.2,0.2,0.3,0.2c0.2,0.2,0.2,0.2,0.3,0.3c0.2,0.2,0.2,0.2,0.2,0.2
				c0.2,0.2,0.2,0.2,0.3,0.3c0.2,0,0.2,0.2,0.2,0.2c0.2,0.2,0.5,0.3,0.6,0.5l0,0c0.2,0.2,0.5,0.2,0.6,0.3c0.2,0,0.2,0.2,0.2,0.2
				c0.2,0.2,0.3,0.2,0.5,0.2c0.2,0,0.2,0,0.2,0.2c0.2,0,0.3,0.2,0.5,0.2c0.2,0,0.2,0,0.3,0c0.2,0,0.2,0,0.3,0l0,0v-1.9l0,0l0,0l0,0
				C1016.6,623.2,1016.5,623,1016.2,622.9z"/>
			<polygon points="1011.8,621.8 1011.8,621.8 1011.8,621.8 			"/>
			<path d="M1023.7,620.8c0.2-0.2,0.2-0.3,0.2-0.5c0-0.2,0-0.2,0.2-0.2c0-0.2,0.2-0.3,0.2-0.5c0-0.2,0-0.2,0-0.2c0-0.2,0-0.5,0-0.8
				c0-0.2,0-0.6,0-0.8c0-0.2,0-0.2,0-0.2c0-0.2-0.2-0.3-0.2-0.6c0-0.2,0-0.2-0.2-0.2c0-0.2-0.2-0.3-0.2-0.5c0-0.2-0.2-0.2-0.2-0.2
				s0-0.2-0.2-0.2l0,0l0,0l-1.6,1l0,0l0,0c0.2,0.2,0.2,0.5,0.2,0.8c0,0.2,0,0.2,0,0.2c0,0.2,0.2,0.6,0.2,0.8c0,0.2,0,0.6-0.2,0.8
				c0,0.2,0,0.2,0,0.2c-0.2,0.2-0.2,0.6-0.2,0.8l0,0l0,0l0,0l1.6,1l0,0l0,0c0,0,0-0.2,0.2-0.2C1023.5,621.1,1023.7,621,1023.7,620.8
				z"/>
			<path d="M1018.9,614.1L1018.9,614.1c0.6,0.2,1.1,0.5,1.6,0.8l0.2,0.2c0.2,0.2,0.3,0.3,0.6,0.6l0,0l0,0l0,0l1.1-0.6l0.5-0.2l0,0
				l0,0l-0.2-0.2c-0.2-0.2-0.2-0.2-0.3-0.2c-0.2-0.2-0.2-0.2-0.3-0.3c-0.2-0.2-0.2-0.2-0.2-0.2c-0.2-0.2-0.2-0.2-0.5-0.3
				c-0.2,0-0.2-0.2-0.2-0.2c-0.5-0.3-0.8-0.6-1.4-0.8c-0.2,0-0.2,0-0.3-0.2c-0.2-0.2-0.3-0.2-0.5-0.2s-0.2,0-0.2-0.2
				c-0.2,0-0.3-0.2-0.5-0.2c-0.2,0-0.2,0-0.3,0c-0.2,0-0.2,0-0.2,0l0,0v1.9l0,0l0,0l0,0C1018.4,613.9,1018.7,613.9,1018.9,614.1z"/>
			<path d="M1018.6,625.1c0.2,0,0.3-0.2,0.5-0.2c0.2,0,0.2,0,0.2-0.2c0.2,0,0.3-0.2,0.5-0.2c0.2,0,0.2,0,0.2-0.2
				c0.5-0.2,1-0.5,1.4-0.8c0.2,0,0.2-0.2,0.2-0.2c0.2-0.2,0.3-0.2,0.3-0.3s0.2-0.2,0.2-0.2s0.2-0.2,0.3-0.3c0.2-0.2,0.2-0.2,0.3-0.2
				l0.2-0.2l0,0l0,0l-0.5-0.2l-1.1-0.6l0,0l0,0l0,0c-0.2,0.2-0.3,0.5-0.6,0.6l-0.2,0.2c-0.2,0.2-0.5,0.3-0.6,0.5l0,0
				c-0.2,0.2-0.5,0.2-0.6,0.3c0,0-0.2,0-0.2,0.2c-0.2,0.2-0.6,0.2-0.8,0.2l0,0l0,0l0,0v1.9l0,0
				C1018.4,625.1,1018.4,625.1,1018.6,625.1C1018.4,625.1,1018.4,625.1,1018.6,625.1z"/>
			<path d="M1014.7,620.8L1014.7,620.8c0.2,0.2,0.2,0.3,0.5,0.5l0.2,0.2c0.3,0.2,0.6,0.5,1.1,0.6h0.2c0.2,0,0.3,0.2,0.5,0.2l0,0l0,0
				v-2.7l0,0L1014.7,620.8L1014.7,620.8z"/>
			<path d="M1018.7,621.9L1018.7,621.9c0.5-0.2,0.8-0.3,1.1-0.6l0.2-0.2c0.2-0.2,0.2-0.2,0.3-0.3l0,0l0,0l0,0l-2.4-1.3l0,0v2.7l0,0
				l0,0C1018.4,622.1,1018.4,621.9,1018.7,621.9z"/>
			<path d="M1014.1,619.8l2.4-1.3l0,0l-2.4-1.3l0,0l0,0l0,0c-0.2,0.2-0.2,0.3-0.2,0.5v0.2c0,0.2,0,0.3,0,0.6c0,0.2,0,0.3,0,0.6v0.2
				C1014.1,619.4,1014.1,619.5,1014.1,619.8L1014.1,619.8L1014.1,619.8L1014.1,619.8z"/>
			<path d="M1020.3,616.2L1020.3,616.2L1020.3,616.2c-0.2-0.2-0.2-0.3-0.3-0.5l-0.2-0.2c-0.2-0.2-0.3-0.2-0.5-0.3l0,0
				c-0.2-0.2-0.3-0.2-0.6-0.2h-0.2c-0.2,0-0.3-0.2-0.5-0.2l0,0l0,0v2.7l0,0L1020.3,616.2L1020.3,616.2z"/>
			<path d="M1016.5,615L1016.5,615c-0.5,0.2-0.8,0.3-1.1,0.6l-0.2,0.2c-0.2,0.2-0.2,0.2-0.3,0.3l0,0l0,0l0,0l2.4,1.3l0,0v-2.7l0,0
				l0,0C1016.8,614.9,1016.6,615,1016.5,615z"/>
			<path d="M1021,617.1l-2.4,1.3l0,0l2.4,1.3l0,0l0,0l0,0c0.2-0.2,0.2-0.3,0.2-0.5l0,0c0-0.2,0-0.3,0-0.6c0-0.2,0-0.3,0-0.6v-0.2
				C1021.1,617.4,1021,617.4,1021,617.1L1021,617.1L1021,617.1L1021,617.1z"/>
		</g>
	</g>
	<g id="Layer_64" display="none">
		<path display="inline" d="M76.5,347.8l-0.5,216c0,7.8,4,12,12,12h220c7.8,0,12-4,12-12c0-3.8,0-7.8-4-7.8l-64-64
			c40-36.2,91.8-56.2,147.8-56.2c116,0,208,92,208,204c-3.8,112-95.8,204-211.8,204V960c180,0,327.8-144,327.8-320
			S580.2,320,400.2,320c-83.8,0-168,36-228,92l-68-68c-0.6-1-1.4-1.4-2.1-1.9c-2.1-4.3-6.7-7.4-12-7.4
			C82.6,334.6,76.5,340.3,76.5,347.8C76.5,347.8,76.5,348,76.5,347.8z"/>
	</g>
	<g id="Layer_65" display="none">
		<path display="inline" d="M719.5,351.4c0-7.4-5.9-13-13.3-13c-5.3,0-9.8,3-11.8,7.4c-0.6,0.5-1.4,1-2.1,1.9l-67.2,67.2
			C565.9,359.5,482.9,324,400,324C222.1,323.8,80,466.2,80,640s146.1,316.2,323.8,316.2V841.3c-114.6,0-205.4-90.9-209.3-201.4
			c0-110.6,90.9-201.4,205.4-201.4c55.4,0,106.6,19.7,146.1,55.4L482.9,557c-4,0-4,4-4,7.8c0,7.8,4,11.8,11.8,11.8H708
			c7.8,0,11.8-4,11.8-11.8L719.5,351.4C719.5,351.7,719.5,351.4,719.5,351.4z"/>
	</g>
</g>
<g id="Isolation_Mode">
	<g>
		<path d="M315.8,429.6c162.7,0,294.6,131.9,294.6,294.6h-63.1c0-61.8-24.1-119.9-67.8-163.7c-43.7-43.7-101.8-67.8-163.7-67.8
			V429.6z M315.8,303.3c232.4,0,420.8,188.4,420.8,420.8h-63.1c0-48.3-9.4-95.2-28.1-139.2c-18-42.6-43.8-80.9-76.7-113.7
			c-32.9-32.9-71.1-58.7-113.7-76.7c-44.1-18.6-90.9-28.1-139.2-28.1V303.3z M441,599c28.8,28.8,43.1,66.5,43.1,104.2
			c-42.1,63.1-42.1,147.3-42.1,147.3c-168.3,0-294.6,126.2-294.6,126.2l-9.2-9.2l-15.2-15.2l186.5-186.5c2,0.3,4.1,0.5,6.3,0.5
			c23.2,0,42.1-18.8,42.1-42.1c0-23.2-18.8-42.1-42.1-42.1s-42.1,18.8-42.1,42.1c0,2.1,0.2,4.2,0.5,6.3L87.7,916.9l-24.4-24.4
			c0,0,126.3-126.3,126.3-294.6c0,0,84.2,0,147.3-42.1C374.6,555.8,412.3,570.2,441,599z"/>
	</g>
</g>
</svg>
