<?xml version="1.0" encoding="utf-8"?>
<!-- Generator: Adobe Illustrator 17.1.0, SVG Export Plug-In . SVG Version: 6.00 Build 0)  -->
<!DOCTYPE svg PUBLIC "-//W3C//DTD SVG 1.0//EN" "http://www.w3.org/TR/2001/REC-SVG-20010904/DTD/svg10.dtd">
<svg version="1.0" xmlns="http://www.w3.org/2000/svg" xmlns:xlink="http://www.w3.org/1999/xlink" x="0px" y="0px"
	 viewBox="0 0 500 500" enable-background="new 0 0 500 500" xml:space="preserve">
<g id="Layer_1">
	<path d="M50,157.9h58.2v273.3H50V157.9z M434.8,294.7c0,82.4-60.2,141.4-143,141.4c-82.4,0-142.6-59-142.6-141.4
		c0-82.4,60.2-141.4,142.6-141.4C374.5,153.4,434.8,212.4,434.8,294.7z M374.9,294.7c0-51.2-32.8-89.7-83.2-89.7
		c-50.4,0-82.8,38.5-82.8,89.7c0,50.8,32.4,89.7,82.8,89.7C342.2,384.5,374.9,345.6,374.9,294.7z M393.8,99.7l-51.6-35.8l-114.5,0
		l-51.6,35.8H50v36.7h136l51.6-35.8l94.9,0l51.6,35.8h66V99.7H393.8z"/>
</g>
<g id="Layer_2" display="none">
	<path display="inline" d="M206.1,363.5h87.7V188.1h87.7L250,56.5L118.4,188.1h87.7V363.5z M423.3,363.5v53.3H76.7v-53.3H50v53.3
		v26.7h26.7h346.7H450v-26.7v-53.3H423.3z"/>
</g>
<g id="Layer_3" display="none">
	<path display="inline" d="M284.5,292.9V247H135.7v139.9h148.8v-54.2h105.4V356H450v108.3H284.5v-54.2H110.1V167.3H50V35.7h106v23.2
		h59.5v108.3h-79.8v57.1h148.8v-63.1h105.4v23.2H450v108.3H284.5z"/>
</g>
<g id="Layer_4" display="none">
	<g display="inline">
		<g>
			<path d="M209,130.8c-93.5,0-169,57.8-169,130.2c0,35.7,17.8,67.2,47.3,91.3c-1.1,24.1-7.4,52.5-24.2,69.3
				c33.6,0,67.2-21,89.3-37.8c17.8,5.2,36.7,7.4,56.7,7.4c93.5,0,170.1-57.7,170.1-130.2S302.5,130.8,209,130.8z"/>
			<path d="M434.8,273.6c14.7-18.9,22.1-41,22.1-65.1c0-71.4-75.6-130.2-169-130.2c-41,0-79.8,11.6-108.1,30.5
				c13.7-3.2,28.3-4.2,43-4.2c100.8,0,182.7,64.1,182.7,143.9c0,30.4-12.6,59.9-34.7,82.9c22.1,16.8,55.7,37.8,89.3,37.8
				C435.8,346.1,433.8,296.7,434.8,273.6z"/>
		</g>
	</g>
</g>
<g id="Layer_5" display="none">
	<g id="Layer_1_4_" display="inline">
		<path d="M450,153v230.3c0,10-7.8,18.2-17.3,18.2H67.3c-9.6,0-17.3-8.1-17.3-18.2V116.7c0-10,7.8-18.2,17.3-18.2h86.8l34.6,36.4
			h243.9C442.2,134.8,450,143,450,153z"/>
	</g>
</g>
<g id="Layer_6" display="none">
	<g id="settings_copy_2_4_" display="inline">
		<g>
			<path fill-rule="evenodd" clip-rule="evenodd" d="M250,210.4c-22.1,0-40.1,18-40.1,40.1c0,22.1,18,40.1,40.1,40.1
				c22.1,0,40.1-18,40.1-40.1C290.1,228.4,272.1,210.4,250,210.4z M417.9,210.9H397c-3.3-12.3-8.1-24.1-14.2-35l18.8-18.8
				c12.5-12.5,12.5-32.8,0-45.4l-11.3-11.3c-12.5-12.5-32.8-12.5-45.4,0l-18.5,18.5c-11.3-6.6-23.5-11.7-36.4-15.2V82.1
				c0-17.7-14.4-32.1-32.1-32.1h-16c-17.7,0-32.1,14.4-32.1,32.1v21.6c-12.9,3.5-25.1,8.6-36.4,15.2l-18.5-18.5
				c-12.5-12.5-32.8-12.5-45.4,0l-11.3,11.3c-12.5,12.5-12.5,32.8,0,45.4l18.8,18.8c-6.1,10.9-10.9,22.6-14.2,35H82.1
				C64.4,210.9,50,225.3,50,243v16c0,17.7,14.4,32.1,32.1,32.1h21.2c3.4,12.5,8.4,24.3,14.7,35.2l-19.6,19.6
				c-12.5,12.5-12.5,32.8,0,45.4l11.3,11.3c12.5,12.5,32.8,12.5,45.4,0l19.7-19.7c10.9,6.2,22.7,11.1,35.1,14.4v20.5
				c0,17.7,14.4,32.1,32.1,32.1h16c17.7,0,32.1-14.4,32.1-32.1v-20.5c12.4-3.4,24.2-8.2,35.1-14.4l19.7,19.7
				c12.5,12.5,32.8,12.5,45.4,0l11.3-11.3c12.5-12.5,12.5-32.8,0-45.4L382,326.3c6.3-11,11.3-22.8,14.7-35.2h21.2
				c17.7,0,32.1-14.4,32.1-32.1v-16C450,225.3,435.6,210.9,417.9,210.9z M250,339.7c-48.7,0-88.2-39.5-88.2-88.2
				c0-48.7,39.5-88.2,88.2-88.2c48.7,0,88.2,39.5,88.2,88.2C338.2,300.2,298.7,339.7,250,339.7z"/>
		</g>
	</g>
</g>
<g id="Layer_7" display="none">
	<path display="inline" d="M453.2,220.3l-109.6,79.5l42.2,128.9c2,6.8-0.4,14.1-6.4,18.5c-2.8,2.4-6,3.6-9.6,3.6
		c-3.6,0-6.8-1.2-10-3.2L250,368.1l-109.6,79.5c-2.8,2-6,3.2-9.6,3.2c-6.8,0-14.1-5.2-16.1-12c-1.2-3.2-1.2-6.4,0-10l41.8-128.9
		L46.8,220.3c-6-4.8-8-12-6-19.3s8.4-11.2,16.1-11.2h135.3l41.8-128.9c2.8-6.8,8.4-11.6,16.1-11.6s13.3,4.8,16.1,11.6l41.8,128.9
		h135.3c8,0,14.1,4,16.1,11.2S459.2,215.5,453.2,220.3z"/>
</g>
<g id="Layer_8" display="none">
	<path display="inline" d="M97.3,45v410H64.9V45H97.3z M119.8,45v242.7l315.3-121.4L119.8,45z"/>
</g>
<g id="Layer_9" display="none">
	<path display="inline" d="M97.3,45v410H64.9V45H97.3z M435.5,166.4L120.2,287.7V45L435.5,166.4z M152.6,240.6l192.7-74.2
		L152.6,92.2V240.6z"/>
</g>
<g id="Layer_10" display="none">
	<path display="inline" d="M47.8,67.4l-0.3,135c0,4.9,2.5,7.5,7.5,7.5h137.5c4.9,0,7.5-2.5,7.5-7.5c0-2.4,0-4.9-2.5-4.9l-40-40
		c25-22.6,57.4-35.1,92.4-35.1c72.5,0,130,57.5,130,127.5c-2.4,70-59.9,127.5-132.4,127.5V450c112.5,0,204.9-90,204.9-200
		S362.6,50,250.1,50c-52.4,0-105,22.5-142.5,57.5L65.1,65c-0.4-0.6-0.9-0.9-1.3-1.2c-1.3-2.7-4.2-4.6-7.5-4.6
		C51.6,59.1,47.8,62.7,47.8,67.4C47.8,67.4,47.8,67.5,47.8,67.4z"/>
</g>
<g id="Layer_11" display="none">
	<path display="inline" d="M449.7,69.6c0-4.6-3.7-8.1-8.3-8.1c-3.3,0-6.1,1.9-7.4,4.6c-0.4,0.3-0.9,0.6-1.3,1.2l-42,42
		c-37-34.6-88.9-56.8-140.7-56.8C138.8,52.4,50,141.4,50,250s91.3,197.6,202.4,197.6v-71.8c-71.6,0-128.4-56.8-130.8-125.9
		c0-69.1,56.8-125.9,128.4-125.9c34.6,0,66.6,12.3,91.3,34.6l-39.5,39.5c-2.5,0-2.5,2.5-2.5,4.9c0,4.9,2.5,7.4,7.4,7.4h135.8
		c4.9,0,7.4-2.5,7.4-7.4L449.7,69.6C449.7,69.8,449.7,69.6,449.7,69.6z"/>
</g>
<g id="Layer_12" display="none">
	<path display="inline" d="M135.7,450H50v-85.7L135.7,450z M450,135.7L164.3,421.4l-85.7-85.7L364.3,50L450,135.7z"/>
</g>
<g id="Layer_13" display="none">
	<g display="inline">
		<rect x="136.6" y="137.1" width="254.3" height="25.1"/>
		<rect x="136.6" y="194.4" width="254.3" height="25.1"/>
		<rect x="136.6" y="254.1" width="169.6" height="25.1"/>
		<path d="M50,48.3v403.4h40.2l80.3-83.8H450V48.3H50z M424.9,342.9h-265l-84.8,88.4V73.4h349.9V342.9z"/>
	</g>
</g>
<g id="Layer_14" display="none">
	<g display="inline">
		<path d="M381.2,328.8c-18,0-34.6,6.1-47.9,16.3l-137-82.2c0.7-4.2,1.1-8.5,1.1-12.9c0-4.4-0.5-8.7-1.1-12.9l137-82.2
			c13.3,10.2,29.8,16.3,47.9,16.3c43.5,0,78.8-35.3,78.8-78.8s-35.3-78.8-78.8-78.8S302.5,49,302.5,92.5c0,4.4,0.5,8.7,1.1,12.9
			l-137,82.2c-13.3-10.2-29.8-16.3-47.9-16.3C75.3,171.2,40,206.5,40,250s35.3,78.8,78.8,78.8c18,0,34.6-6.1,47.9-16.3l137,82.2
			c-0.7,4.2-1.1,8.5-1.1,12.9c0,43.5,35.3,78.8,78.8,78.8S460,451,460,407.5S424.7,328.8,381.2,328.8z"/>
	</g>
</g>
<g id="Layer_15" display="none">
	<g display="inline">
		<polygon points="206.1,77 293.8,77 293.8,233.7 381.5,233.7 250,365.3 118.4,233.7 206.1,233.7 		"/>
		<polygon points="423.3,343 423.3,396.3 76.7,396.3 76.7,343 50,343 50,396.3 50,423 76.7,423 423.3,423 450,423 450,396.3 
			450,343 		"/>
	</g>
</g>
<g id="Layer_16" display="none">
	<g display="inline">
		<g>
			<g>
				<path d="M271.6,58.9v382.2H450L271.6,58.9z M299.3,183.7l107.2,229.7H299.3V183.7z"/>
			</g>
		</g>
		<g>
			<polygon points="228.4,441.1 228.4,58.9 50,441.1 			"/>
		</g>
	</g>
</g>
<g id="Layer_17" display="none">
	<g display="inline">
		<polygon points="58.9,50 58.9,228.4 441.1,228.4 		"/>
		<path d="M58.9,450l382.2-178.4H58.9V450z M86.6,299.3h229.7L86.6,406.5V299.3z"/>
	</g>
</g>
<g id="Layer_18" display="none">
	<path display="inline" d="M384.5,241.6h-19.7v-65.8c0-32.8-12.5-62.8-33-84.8c-20.4-21.9-49.7-36.1-81.8-36
		c-32.2-0.1-61.4,14.1-81.8,36c-20.6,22-33,52-33,84.8v65.8h-19.8c-8.1,0-14.7,6.6-14.7,14.7v173.9c0,8.3,6.7,14.8,14.7,14.8h269.1
		c8.2,0,14.8-6.6,14.8-14.8V256.3C399.3,248.2,392.7,241.6,384.5,241.6L384.5,241.6z M189.7,175.8c0-18.9,7.2-35.7,18.3-47.6
		c11.2-11.9,25.8-18.7,42-18.7c16.1,0,30.7,6.8,42,18.7c11.2,11.9,18.3,28.7,18.3,47.6v65.8H189.7V175.8z M189.7,175.8"/>
</g>
<g id="Layer_19" display="none">
	<g display="inline">
		<path d="M229.4,307.8l-66.6,115.5h220.5L450,307.8H229.4z M431.1,275L316.7,76.8H183.3L297.8,275H431.1z M164.4,109.6L50,307.8
			l66.7,115.5L231,225.1L164.4,109.6z"/>
	</g>
</g>
<g id="Layer_20" display="none">
	<g id="Layer_1_1_" display="inline">
		<path id="USER_2_" d="M450,424.9c0,0,0-68.3-49.9-93.2c-31.6-15.7-19.4-3.7-58.2-19.8s-47.9-21.3-47.9-21.3l-0.3-36.8
			c0,0,14.5-11,19-45.9c9.1,2.6,12.2-10.7,12.6-19.1c0.5-8.2,5.4-33.7-5.7-31.4c2.3-17,4.1-32.4,3.2-40.6
			c-2.8-28.6-22.6-58.5-72.5-60.7c-42.4,2.2-70,32.1-72.7,60.7c-0.8,8.1,0.8,23.5,3.1,40.6c-11.1-2.3-6.3,23.2-5.8,31.4
			c0.5,8.5,3.5,21.7,12.6,19.1c4.5,34.8,19,46,19,46l-0.3,37c0,0-9.2,5.6-47.9,21.6c-38.8,16.1-26.6,3.3-58.2,19
			c-50,24.8-50,93.1-50,93.1l0,0v0c0,10.4,8.4,18.7,18.7,18.7h362.5C441.6,443.7,450,435.3,450,424.9C450,424.9,450,424.9,450,424.9
			L450,424.9z"/>
	</g>
</g>
<g id="Layer_21" display="none">
	<path display="inline" d="M326,250l114-114l-76-76L250,174L136,60l-76,76l114,114L60,364l76,76l114-114l114,114l76-76L326,250z"/>
</g>
</svg>
