<?xml version="1.0" encoding="utf-8"?>
<!-- Generator: Adobe Illustrator 18.1.1, SVG Export Plug-In . SVG Version: 6.00 Build 0)  -->
<svg version="1.1" xmlns="http://www.w3.org/2000/svg" xmlns:xlink="http://www.w3.org/1999/xlink" x="0px" y="0px"
	 viewBox="0 0 500 500" enable-background="new 0 0 500 500" xml:space="preserve">
<g id="Layer_1" display="none">
	<path display="inline" d="M50,157.9h58.2v273.3H50V157.9z M434.8,294.7c0,82.4-60.2,141.4-143,141.4c-82.4,0-142.6-59-142.6-141.4
		c0-82.4,60.2-141.4,142.6-141.4C374.5,153.4,434.8,212.4,434.8,294.7z M374.9,294.7c0-51.2-32.8-89.7-83.2-89.7
		c-50.4,0-82.8,38.5-82.8,89.7c0,50.8,32.4,89.7,82.8,89.7C342.2,384.5,374.9,345.6,374.9,294.7z M393.8,99.7l-51.6-35.8l-114.5,0
		l-51.6,35.8H50v36.7h136l51.6-35.8l94.9,0l51.6,35.8h66V99.7H393.8z"/>
</g>
<g id="Layer_2" display="none">
	<path display="inline" d="M206.1,363.5h87.7V188.1h87.7L250,56.5L118.4,188.1h87.7V363.5z M423.3,363.5v53.3H76.7v-53.3H50v53.3
		v26.7h26.7h346.7H450v-26.7v-53.3H423.3z"/>
</g>
<g id="Layer_3" display="none">
	<path display="inline" d="M284.5,292.9V247H135.7v139.9h148.8v-54.2h105.4V356H450v108.3H284.5v-54.2H110.1V167.3H50V35.7h106v23.2
		h59.5v108.3h-79.8v57.1h148.8v-63.1h105.4v23.2H450v108.3H284.5z"/>
</g>
<g id="Layer_4" display="none">
	<g display="inline">
		<g>
			<path d="M209,130.8c-93.5,0-169,57.8-169,130.2c0,35.7,17.8,67.2,47.3,91.3c-1.1,24.1-7.4,52.5-24.2,69.3
				c33.6,0,67.2-21,89.3-37.8c17.8,5.2,36.7,7.4,56.7,7.4c93.5,0,170.1-57.7,170.1-130.2S302.5,130.8,209,130.8z"/>
			<path d="M434.8,273.6c14.7-18.9,22.1-41,22.1-65.1c0-71.4-75.6-130.2-169-130.2c-41,0-79.8,11.6-108.1,30.5
				c13.7-3.2,28.3-4.2,43-4.2c100.8,0,182.7,64.1,182.7,143.9c0,30.4-12.6,59.9-34.7,82.9c22.1,16.8,55.7,37.8,89.3,37.8
				C435.8,346.1,433.8,296.7,434.8,273.6z"/>
		</g>
	</g>
</g>
<g id="Layer_5" display="none">
	<g id="Layer_1_4_" display="inline">
		<path d="M450,153v230.3c0,10-7.8,18.2-17.3,18.2H67.3c-9.6,0-17.3-8.1-17.3-18.2V116.7c0-10,7.8-18.2,17.3-18.2h86.8l34.6,36.4
			h243.9C442.2,134.8,450,143,450,153z"/>
	</g>
</g>
<g id="Layer_6" display="none">
	<g id="settings_copy_2_4_" display="inline">
		<g>
			<path fill-rule="evenodd" clip-rule="evenodd" d="M250,210.4c-22.1,0-40.1,18-40.1,40.1c0,22.1,18,40.1,40.1,40.1
				c22.1,0,40.1-18,40.1-40.1C290.1,228.4,272.1,210.4,250,210.4z M417.9,210.9H397c-3.3-12.3-8.1-24.1-14.2-35l18.8-18.8
				c12.5-12.5,12.5-32.8,0-45.4l-11.3-11.3c-12.5-12.5-32.8-12.5-45.4,0l-18.5,18.5c-11.3-6.6-23.5-11.7-36.4-15.2V82.1
				c0-17.7-14.4-32.1-32.1-32.1h-16c-17.7,0-32.1,14.4-32.1,32.1v21.6c-12.9,3.5-25.1,8.6-36.4,15.2l-18.5-18.5
				c-12.5-12.5-32.8-12.5-45.4,0l-11.3,11.3c-12.5,12.5-12.5,32.8,0,45.4l18.8,18.8c-6.1,10.9-10.9,22.6-14.2,35H82.1
				C64.4,210.9,50,225.3,50,243v16c0,17.7,14.4,32.1,32.1,32.1h21.2c3.4,12.5,8.4,24.3,14.7,35.2l-19.6,19.6
				c-12.5,12.5-12.5,32.8,0,45.4l11.3,11.3c12.5,12.5,32.8,12.5,45.4,0l19.7-19.7c10.9,6.2,22.7,11.1,35.1,14.4v20.5
				c0,17.7,14.4,32.1,32.1,32.1h16c17.7,0,32.1-14.4,32.1-32.1v-20.5c12.4-3.4,24.2-8.2,35.1-14.4l19.7,19.7
				c12.5,12.5,32.8,12.5,45.4,0l11.3-11.3c12.5-12.5,12.5-32.8,0-45.4L382,326.3c6.3-11,11.3-22.8,14.7-35.2h21.2
				c17.7,0,32.1-14.4,32.1-32.1v-16C450,225.3,435.6,210.9,417.9,210.9z M250,339.7c-48.7,0-88.2-39.5-88.2-88.2
				c0-48.7,39.5-88.2,88.2-88.2c48.7,0,88.2,39.5,88.2,88.2C338.2,300.2,298.7,339.7,250,339.7z"/>
		</g>
	</g>
</g>
<g id="Layer_7" display="none">
	<path display="inline" d="M453.2,220.3l-109.6,79.5l42.2,128.9c2,6.8-0.4,14.1-6.4,18.5c-2.8,2.4-6,3.6-9.6,3.6
		c-3.6,0-6.8-1.2-10-3.2L250,368.1l-109.6,79.5c-2.8,2-6,3.2-9.6,3.2c-6.8,0-14.1-5.2-16.1-12c-1.2-3.2-1.2-6.4,0-10l41.8-128.9
		L46.8,220.3c-6-4.8-8-12-6-19.3s8.4-11.2,16.1-11.2h135.3l41.8-128.9c2.8-6.8,8.4-11.6,16.1-11.6s13.3,4.8,16.1,11.6l41.8,128.9
		h135.3c8,0,14.1,4,16.1,11.2S459.2,215.5,453.2,220.3z"/>
</g>
<g id="Layer_8" display="none">
	<path display="inline" d="M97.3,45v410H64.9V45H97.3z M119.8,45v242.7l315.3-121.4L119.8,45z"/>
</g>
<g id="Layer_9" display="none">
	<path display="inline" d="M97.3,45v410H64.9V45H97.3z M435.5,166.4L120.2,287.7V45L435.5,166.4z M152.6,240.6l192.7-74.2
		L152.6,92.2V240.6z"/>
</g>
<g id="Layer_10" display="none">
	<path display="inline" d="M47.8,67.4l-0.3,135c0,4.9,2.5,7.5,7.5,7.5h137.5c4.9,0,7.5-2.5,7.5-7.5c0-2.4,0-4.9-2.5-4.9l-40-40
		c25-22.6,57.4-35.1,92.4-35.1c72.5,0,130,57.5,130,127.5c-2.4,70-59.9,127.5-132.4,127.5V450c112.5,0,204.9-90,204.9-200
		S362.6,50,250.1,50c-52.4,0-105,22.5-142.5,57.5L65.1,65c-0.4-0.6-0.9-0.9-1.3-1.2c-1.3-2.7-4.2-4.6-7.5-4.6
		C51.6,59.1,47.8,62.7,47.8,67.4C47.8,67.4,47.8,67.5,47.8,67.4z"/>
</g>
<g id="Layer_11" display="none">
	<path display="inline" d="M449.7,69.6c0-4.6-3.7-8.1-8.3-8.1c-3.3,0-6.1,1.9-7.4,4.6c-0.4,0.3-0.9,0.6-1.3,1.2l-42,42
		c-37-34.6-88.9-56.8-140.7-56.8C138.8,52.4,50,141.4,50,250s91.3,197.6,202.4,197.6v-71.8c-71.6,0-128.4-56.8-130.8-125.9
		c0-69.1,56.8-125.9,128.4-125.9c34.6,0,66.6,12.3,91.3,34.6l-39.5,39.5c-2.5,0-2.5,2.5-2.5,4.9c0,4.9,2.5,7.4,7.4,7.4h135.8
		c4.9,0,7.4-2.5,7.4-7.4L449.7,69.6C449.7,69.8,449.7,69.6,449.7,69.6z"/>
</g>
<g id="Layer_12" display="none">
	<path display="inline" d="M135.7,450H50v-85.7L135.7,450z M450,135.7L164.3,421.4l-85.7-85.7L364.3,50L450,135.7z"/>
</g>
<g id="Layer_13" display="none">
	<g display="inline">
		<rect x="136.6" y="137.1" width="254.3" height="25.1"/>
		<rect x="136.6" y="194.4" width="254.3" height="25.1"/>
		<rect x="136.6" y="254.1" width="169.6" height="25.1"/>
		<path d="M50,48.3v403.4h40.2l80.3-83.8H450V48.3H50z M424.9,342.9h-265l-84.8,88.4V73.4h349.9V342.9z"/>
	</g>
</g>
<g id="Layer_14" display="none">
	<g display="inline">
		<path d="M381.2,328.8c-18,0-34.6,6.1-47.9,16.3l-137-82.2c0.7-4.2,1.1-8.5,1.1-12.9c0-4.4-0.5-8.7-1.1-12.9l137-82.2
			c13.3,10.2,29.8,16.3,47.9,16.3c43.5,0,78.8-35.3,78.8-78.8s-35.3-78.8-78.8-78.8S302.5,49,302.5,92.5c0,4.4,0.5,8.7,1.1,12.9
			l-137,82.2c-13.3-10.2-29.8-16.3-47.9-16.3C75.3,171.2,40,206.5,40,250s35.3,78.8,78.8,78.8c18,0,34.6-6.1,47.9-16.3l137,82.2
			c-0.7,4.2-1.1,8.5-1.1,12.9c0,43.5,35.3,78.8,78.8,78.8S460,451,460,407.5S424.7,328.8,381.2,328.8z"/>
	</g>
</g>
<g id="Layer_15" display="none">
	<g display="inline">
		<polygon points="206.1,77 293.8,77 293.8,233.7 381.5,233.7 250,365.3 118.4,233.7 206.1,233.7 		"/>
		<polygon points="423.3,343 423.3,396.3 76.7,396.3 76.7,343 50,343 50,396.3 50,423 76.7,423 423.3,423 450,423 450,396.3 
			450,343 		"/>
	</g>
</g>
<g id="Layer_16" display="none">
	<g display="inline">
		<g>
			<g>
				<path d="M271.6,58.9v382.2H450L271.6,58.9z M299.3,183.7l107.2,229.7H299.3V183.7z"/>
			</g>
		</g>
		<g>
			<polygon points="228.4,441.1 228.4,58.9 50,441.1 			"/>
		</g>
	</g>
</g>
<g id="Layer_17" display="none">
	<g display="inline">
		<polygon points="58.9,50 58.9,228.4 441.1,228.4 		"/>
		<path d="M58.9,450l382.2-178.4H58.9V450z M86.6,299.3h229.7L86.6,406.5V299.3z"/>
	</g>
</g>
<g id="Layer_18" display="none">
	<path display="inline" d="M384.5,241.6h-19.7v-65.8c0-32.8-12.5-62.8-33-84.8c-20.4-21.9-49.7-36.1-81.8-36
		c-32.2-0.1-61.4,14.1-81.8,36c-20.6,22-33,52-33,84.8v65.8h-19.8c-8.1,0-14.7,6.6-14.7,14.7v173.9c0,8.3,6.7,14.8,14.7,14.8h269.1
		c8.2,0,14.8-6.6,14.8-14.8V256.3C399.3,248.2,392.7,241.6,384.5,241.6L384.5,241.6z M189.7,175.8c0-18.9,7.2-35.7,18.3-47.6
		c11.2-11.9,25.8-18.7,42-18.7c16.1,0,30.7,6.8,42,18.7c11.2,11.9,18.3,28.7,18.3,47.6v65.8H189.7V175.8z M189.7,175.8"/>
</g>
<g id="Layer_19" display="none">
	<g display="inline">
		<path d="M229.4,307.8l-66.6,115.5h220.5L450,307.8H229.4z M431.1,275L316.7,76.8H183.3L297.8,275H431.1z M164.4,109.6L50,307.8
			l66.7,115.5L231,225.1L164.4,109.6z"/>
	</g>
</g>
<g id="Layer_20" display="none">
	<g id="Layer_1_1_" display="inline">
		<path id="USER_2_" d="M450,424.9c0,0,0-68.3-49.9-93.2c-31.6-15.7-19.4-3.7-58.2-19.8s-47.9-21.3-47.9-21.3l-0.3-36.8
			c0,0,14.5-11,19-45.9c9.1,2.6,12.2-10.7,12.6-19.1c0.5-8.2,5.4-33.7-5.7-31.4c2.3-17,4.1-32.4,3.2-40.6
			c-2.8-28.6-22.6-58.5-72.5-60.7c-42.4,2.2-70,32.1-72.7,60.7c-0.8,8.1,0.8,23.5,3.1,40.6c-11.1-2.3-6.3,23.2-5.8,31.4
			c0.5,8.5,3.5,21.7,12.6,19.1c4.5,34.8,19,46,19,46l-0.3,37c0,0-9.2,5.6-47.9,21.6c-38.8,16.1-26.6,3.3-58.2,19
			c-50,24.8-50,93.1-50,93.1l0,0v0c0,10.4,8.4,18.7,18.7,18.7h362.5C441.6,443.7,450,435.3,450,424.9C450,424.9,450,424.9,450,424.9
			L450,424.9z"/>
	</g>
</g>
<g id="Layer_21" display="none">
	<path display="inline" d="M326,250l114-114l-76-76L250,174L136,60l-76,76l114,114L60,364l76,76l114-114l114,114l76-76L326,250z"/>
</g>
<g id="Layer_22" display="none">
	<path display="inline" d="M462.4,77.1L289.6,250l172.9,172.9l-39.6,39.6L250,289.6L77.2,462.5l-39.6-39.6L210.4,250L37.5,77.1
		l39.6-39.6L250,210.4L422.7,37.5L462.4,77.1z"/>
</g>
<g id="Layer_23" display="none">
	<path display="inline" d="M209.2,396c-4.8,4.8-12.4,4.8-17.2,0l-3.8-3.8l0,0l-4-4.1l-17.9-17.9c-0.1,0,0-0.2-0.1-0.2L41.7,245
		c-4.8-4.8-4.8-12.4,0-17.2l25.8-25.8c4.7-4.8,12.4-4.8,17.2,0l116.1,116.6L415.4,104c4.8-4.7,12.5-4.7,17.2,0l25.8,25.8
		c4.8,4.8,4.8,12.4,0,17.2L209.2,396L209.2,396z"/>
</g>
<g id="Layer_24" display="none">
	<path display="inline" d="M450.2,165.1h-400V108h400V165.1z M450.2,222.3h-400v57.1h400V222.3z M450.2,336.6h-400v57.1h400V336.6z"
		/>
</g>
<g id="Layer_25" display="none">
	<g display="inline">
		<path d="M250,83.5c91.8,0,166.5,74.7,166.5,166.5S341.8,416.5,250,416.5S83.5,341.8,83.5,250S158.2,83.5,250,83.5 M250,65
			C147.8,65,65,147.8,65,250s82.8,185,185,185c102.2,0,185-82.8,185-185S352.2,65,250,65L250,65z"/>
		<g>
			<path d="M270.6,333c0,11.5-8.9,20.7-20.7,20.7c-11.5,0-20.4-9.2-20.4-20.7c0-11.2,8.9-20.4,20.4-20.4
				C261.7,312.6,270.6,321.8,270.6,333z M261.7,282.1h-24l-3.3-135.9h30.2L261.7,282.1z"/>
		</g>
	</g>
</g>
<g id="Layer_26" display="none">
	<g display="inline">
		<rect x="-19.4" y="236.5" transform="matrix(0.7071 0.7071 -0.7071 0.7071 249.9999 -103.5537)" width="538.7" height="26.9"/>
		<rect x="-19.4" y="236.5" transform="matrix(-0.7071 0.7071 -0.7071 -0.7071 603.5533 250.0003)" width="538.7" height="26.9"/>
	</g>
</g>
<g id="Layer_27" display="none">
	<g display="inline">
		<rect x="-19.4" y="236.5" transform="matrix(-0.7071 0.7071 -0.7071 -0.7071 603.5534 250)" width="538.7" height="26.9"/>
		<polygon points="423.1,50 126.8,50 126.8,76.9 423.1,76.9 423.1,373.2 450,373.2 450,76.9 450,50 		"/>
	</g>
</g>
<g id="Layer_28" display="none">
	<path display="inline" d="M249.7,65.2c-102.2,0-185,82.8-185,185c0,102.2,82.8,185,185,185c102.2,0,185-82.8,185-185
		C434.7,148.1,351.8,65.2,249.7,65.2z M269.3,269.9v113.8h-19.7v0v0H230V269.9H116.2v-19.7h0h0v-19.7H230V116.7h39.4v113.8h113.8
		v39.4H269.3z M249.7,250.2L249.7,250.2"/>
</g>
<g id="Layer_29" display="none">
	<path display="inline" d="M309.9,226.9L216.4,68.6c11-2,22.2-3.4,33.7-3.4c48.7,0,92.6,19.2,125.6,49.9L309.9,226.9z M392,133
		l-96.3,163.7h132.8c3.8-14.8,6.6-30.2,6.6-46.3C435.1,205.6,418.6,165,392,133z M193.3,74.7c-52,16.9-94.1,56.3-114.5,105.8h177.1
		L193.3,74.7z M308.2,425.2c51.4-17.2,93-55.9,113.2-105.4H245.8L308.2,425.2z M71.6,204.2c-3.8,14.8-6.6,30.1-6.6,46.2
		c0,45,16.7,85.7,43.4,117.9l96.5-164H71.6z M124.9,385.8c33,30.4,76.7,49.5,125.2,49.5c12,0,23.8-1.3,35.2-3.5l-93.9-158.8
		L124.9,385.8z"/>
</g>
<g id="Layer_30" display="none">
	<polygon display="inline" points="185.3,250 350,85.3 350,50 150,250 350,450 350,414.7 	"/>
</g>
<g id="Layer_31" display="none">
	<polygon display="inline" points="314.7,250 150,85.3 150,50 350,250 150,450 150,414.7 	"/>
</g>
<g id="Layer_32" display="none">
	<g display="inline">
		<g>
			<path d="M450,125.9c-14.7,6.5-30.5,10.9-47.1,12.9c16.9-10.2,30-26.2,36.1-45.4c-15.9,9.4-33.4,16.2-52.1,19.9
				c-15-15.9-36.3-25.9-59.9-25.9c-45.3,0-82.1,36.7-82.1,82.1c0,6.4,0.7,12.7,2.1,18.7c-68.2-3.4-128.7-36.1-169.1-85.7
				c-7.1,12.1-11.1,26.2-11.1,41.3c0,28.5,14.5,53.6,36.5,68.3c-13.5-0.4-26.1-4.1-37.2-10.3c0,0.3,0,0.7,0,1
				c0,39.8,28.3,72.9,65.8,80.5c-6.9,1.9-14.1,2.9-21.6,2.9c-5.3,0-10.4-0.5-15.4-1.5c10.4,32.6,40.7,56.3,76.7,57
				c-28.1,22-63.5,35.1-101.9,35.1c-6.6,0-13.2-0.4-19.6-1.2c36.3,23.3,79.5,36.9,125.8,36.9c150.9,0,233.5-125,233.5-233.5
				c0-3.6-0.1-7.1-0.2-10.6C425.1,156.9,439,142.4,450,125.9L450,125.9z M450,125.9"/>
		</g>
	</g>
</g>
<g id="Layer_33" display="none">
	<g display="inline">
		<path d="M269.6,70H158.1c-50,0-97,37.9-97,81.7c0,44.8,34.1,81,84.9,81c3.5,0,7-0.1,10.3-0.3c-3.3,6.3-5.7,13.4-5.7,20.8
			c0,12.5,6.7,22.6,15.2,30.8c-6.4,0-12.6,0.2-19.3,0.2C84.6,284.2,37,323.7,37,364.5c0,40.3,52.2,65.5,114.2,65.5
			c70.6,0,109.6-40,109.6-80.3c0-32.3-9.5-51.6-39-72.5c-10.1-7.1-29.3-24.5-29.3-34.7c0-12,3.4-17.8,21.4-31.9
			c18.4-14.4,31.5-34.7,31.5-58.2c0-28.1-12.5-55.4-35.9-64.4h35.3L269.6,70z M230.6,342.7c0.9,3.7,1.4,7.6,1.4,11.5
			c0,32.5-21,58-81.1,58c-42.8,0-73.7-27.1-73.7-59.6c0-31.9,38.3-58.4,81.1-58c10,0.1,19.3,1.7,27.7,4.4
			C209.3,315.2,225.9,324.3,230.6,342.7L230.6,342.7z M162.1,221.4c-28.7-0.9-56-32.1-61-69.8c-5-37.7,14.3-66.6,43-65.7
			c28.7,0.9,56,31.1,61,68.8C210.1,192.4,190.8,222.2,162.1,221.4L162.1,221.4z M383.2,149.9V70h-26.6v79.9h-79.9v26.6h79.9v79.9
			h26.6v-79.9H463v-26.6H383.2z M383.2,149.9"/>
	</g>
</g>
<g id="Layer_34" display="none">
	<g display="inline">
		<path d="M281.5,450h-74.9V250h-50v-68.9l50,0l-0.1-40.6c0-56.2,15.2-90.4,81.5-90.4h55.1v68.9h-34.5c-25.8,0-27,9.6-27,27.6
			l-0.1,34.5h62l-7.3,68.9l-54.6,0L281.5,450z M281.5,450"/>
	</g>
</g>
<g id="Layer_35" display="none">
	<path display="inline" d="M313.4,121.1V95c0-13.8,11.2-25,24.9-25c13.8,0,25,11.2,25,25v26.1c0,13.8-11.2,24.9-25,24.9
		S313.4,134.9,313.4,121.1z M427.4,429.9l-25.3,0.1H97.9H72.6V112.6l50.7,0.6v12.7c0,20.9,17,38,38,38c21,0,38-17.1,38-38v-12.7
		h101.4v12.7c0,20.9,17,38,38,38c21,0,38-17.1,38-38v-12.7H427L427.4,429.9z M402.1,201.9H97.9v202.8h304.2V201.9z M160.9,146
		c13.8,0,25-11.1,25-24.9V95c0-13.8-11.2-25-25-25c-13.8,0-24.9,11.2-24.9,25v26.1C135.9,134.9,147.1,146,160.9,146z M239.4,229.1
		h-39.9v35.2h39.9V229.1z M304,229.1h-40v35.2h40V229.1z M363.8,229.1h-39.9v35.2h39.9V229.1z M239.4,287.7h-39.9v35.2h39.9V287.7z
		 M304,287.7h-40v35.2h40V287.7z M363.8,287.7h-39.9v35.2h39.9V287.7z M239.4,347.4h-39.9v35.2h39.9V347.4z M175.9,287.7h-39.9v35.2
		h39.9V287.7z M175.9,347.4h-39.9v35.2h39.9V347.4z M304,347.4h-40v35.2h40V347.4z M363.8,347.4h-39.9v35.2h39.9V347.4z"/>
</g>
<g id="Layer_36" display="none">
	<path display="inline" d="M228.5,268.5c5.2,6.1,12.8,9.9,21.4,10c15.7,0,28.4-12.7,28.5-28.4c0-8.6-3.9-16.3-9.9-21.5
		c0,0,0-0.1-0.1-0.1c0,0-151-120.5-155.5-115.9c-4.5,4.5,115.5,156,115.5,156C228.4,268.5,228.5,268.5,228.5,268.5z M250,65
		c15.7,0,28.5,12.8,28.5,28.5S265.7,122,250,122s-28.5-12.8-28.5-28.5S234.3,65,250,65z M331.8,84.3c-1.3-0.6-13.9-5.2-20.8,6.3
		c-9.8,16.4,5.6,26.5,10.3,29c46.2,25.3,77.6,74.1,77.6,130.4c0,82.1-66.8,148.9-148.9,148.9S101.1,332.1,101.1,250
		c0-18.9,3.6-36.9,10.1-53.5c0.8-2.1,9-16.4-6.9-26.4c-10.9-6.8-21.5,0.9-23.6,5.7C70.6,198.5,65,223.6,65,250
		c0,102.2,82.8,185,185,185s185-82.8,185-185C435,177.2,392.9,114.4,331.8,84.3z"/>
</g>
<g id="Layer_37" display="none">
	<path display="inline" d="M307,229.9l95.5,20.4L84.3,450l114.8-178.5l-95.5-20.4L415.7,50L307,229.9z"/>
</g>
<g id="Layer_38" display="none">
	<path display="inline" d="M425,250.1c0-64.6-10.6-131.1-31.7-161.9l0,0l-13.9-21.2L82,238.8c-0.2,0.1-0.5,0.2-0.6,0.4
		c-3.9,2.2-6.3,6.4-6.3,11s2.4,8.7,6.3,11c0.3,0.2,0.6,0.3,0.9,0.5l298,171.3l13.1-20.9l0,0C413.2,380,425,314.7,425,250.1z
		 M399.7,250.1c0,90.1-19.6,141.4-30,148.2l-8.1-4.7C351,378,335.9,329,335.9,250.1s15-127.9,25.7-143.6l8.1-4.7
		C380.1,108.8,399.7,160,399.7,250.1z M234.5,250.1c0,36.4-10.4,56.4-15.8,61l-7-4c-5.5-8.3-12.6-27.1-12.6-57
		c0-29.9,7.1-48.7,12.6-57l7-4C224.1,193.8,234.5,213.8,234.5,250.1z M113,250.1l64.8-37.4c-2.5,11.8-3.8,24.6-3.8,37.4
		c0,12.8,1.3,25.6,3.8,37.4L113,250.1z M240.9,324c12.5-16.3,18.9-45.2,18.9-73.9s-6.4-57.5-18.9-73.8l85-49.1
		c-10.2,33.6-15.2,79.1-15.2,122.9s4.9,89.4,15.2,122.9L240.9,324z"/>
</g>
<g id="Layer_39" display="none">
	<path display="inline" d="M423.2,402.8H76.8c-18.1,0-32.8-15-32.8-33.5V130.7c0-18.4,14.7-33.5,32.8-33.5h346.5
		c18.1,0,32.8,15,32.8,33.5v238.7C456.1,387.8,441.3,402.8,423.2,402.8z M76.8,125.7c-2.7,0-4.8,2.2-4.8,4.9v238.7
		c0,2.7,2.2,4.9,4.8,4.9h346.5c2.7,0,4.8-2.2,4.8-4.9V130.7c0-2.7-2.2-4.9-4.8-4.9H76.8z M119.6,312.7V174.2h32.5v138.5H119.6z
		 M210.4,316.1c-23.9,0-41.8-8.8-53-20l16.7-18.6c9.8,9,21.6,14,34.9,14c13.4,0,21.3-6.4,21.3-16.8c0-10-5.1-14.6-23.9-20.6
		c-31.2-10-41.8-22.6-41.8-43.2c0-25.6,22.5-40.4,50-40.4c20.4,0,35.3,6.4,47.3,18l-15.2,18c-9.2-7.8-18.8-11.6-29.2-11.6
		c-11.8,0-19,4.8-19,13.4c0,8.8,4.5,12.2,25.5,19c25.7,8.6,40.4,19.4,40.4,44.8C264.3,298.1,244.1,316.1,210.4,316.1z M329,316.1
		c-38.2,0-61-26.4-61-72.7c0-45.4,22.8-72.7,61-72.7s61,26.4,61,72.7C389.9,288.7,367.2,316.1,329,316.1z M329,195
		c-17.7,0-27.1,13.2-27.1,48.4s9.6,48.6,27.1,48.6c18.1,0,27.1-13.4,27.1-48.6C356,208.2,346.6,195,329,195z"/>
</g>
<g id="Layer_40" display="none">
	<path display="inline" d="M426.6,402.8H73.5c-18.4,0-33.5-15-33.5-33.5V130.7c0-18.4,15-33.5,33.5-33.5h353
		c18.4,0,33.5,15,33.5,33.5v238.7C460,387.8,445,402.8,426.6,402.8z M73.5,125.7c-2.7,0-4.9,2.2-4.9,4.9v238.7
		c0,2.7,2.2,4.9,4.9,4.9h353c2.7,0,4.9-2.2,4.9-4.9V130.7c0-2.7-2.2-4.9-4.9-4.9H73.5z M250,349.1c-54.7,0-99.1-44.5-99.1-99.1
		s44.4-99.1,99.1-99.1s99.1,44.4,99.1,99.1S304.7,349.1,250,349.1z M250,179.4c-38.9,0-70.6,31.7-70.6,70.6s31.6,70.6,70.6,70.6
		s70.6-31.6,70.6-70.6S289,179.4,250,179.4z M206.2,250c0,24.2,19.6,43.8,43.8,43.8s43.8-19.7,43.8-43.8s-19.7-43.8-43.8-43.8
		S206.2,225.8,206.2,250z"/>
</g>
<g id="Layer_41" display="none">
	<path display="inline" d="M128.8,161.2L40,250l88.8,88.9H460V161.2H128.8z"/>
</g>
<g id="Layer_42" display="none">
	<g display="inline">
		<rect x="116.6" y="156.9" width="266.5" height="293.1"/>
		<polygon points="301.2,76.6 301.2,50 198.8,50 198.8,76.6 90.1,76.6 90.1,129.9 409.9,129.9 409.9,76.6 		"/>
	</g>
</g>
<g id="Layer_43" display="none">
	<path display="inline" d="M398.2,318.7V181.8c27-7.6,46.8-33.1,46.8-61.5c0-36.6-28.7-65.2-65.3-65.2c-29.8,0-54.4,19-61.6,46.8
		H181.8c-7.6-27-33.1-46.7-61.5-46.7C83.7,55,55,83.7,55,120.2c0,29.9,18.9,54.4,46.7,61.6v136.4c-27,7.6-46.7,33.1-46.7,61.5
		c0,36.6,28.7,65.3,65.2,65.3c29.9,0,54.4-19,61.6-46.8h136.4c7.6,27,33.1,46.8,61.5,46.8c36.6,0,65.3-28.7,65.2-65.9
		C442.5,352,423.6,327.8,398.2,318.7z M351.5,379.8v-18.5H146.2v18.5c0,15.1-13.2,28.3-28.3,28.3c-15.1,0-28.3-13.2-28.3-28.3
		c0-15.1,13.2-28.3,28.3-28.3h18.5V146.2h-18.5c-15.1,0-28.3-13.2-28.3-28.3c0-15.1,13.2-28.3,28.3-28.3c15.1,0,28.3,13.2,28.3,28.3
		v18.5h205.3v-18.5c0-15.1,13.2-28.3,28.3-28.3c15.1,0,28.3,13.2,28.3,28.3c0,15.1-13.2,28.3-28.3,28.3h-18.5v205.3h18.5
		c15.1,0,28.3,13.2,28.3,28.3c0,15.1-13.2,28.3-28.3,28.3C364.7,408,351.5,394.8,351.5,379.8z"/>
</g>
<g id="Layer_46" display="none">
	<path display="inline" d="M373.6,199.9L373.6,199.9c0.7-5.4,1.1-10.6,1.1-15.7c0-69.6-56.6-126.2-126.2-126.2
		s-126.2,56.6-126.2,126.2c0,5.6,0.4,11.3,1.2,17C78.7,221.9,50,266.3,50,315.8C50,385.4,106.6,442,176.2,442
		c26.8,0,52.2-8.3,73.8-24c21.4,15.5,47.4,24,73.8,24c69.6,0,126.2-56.6,126.2-126.2C450.1,265.6,419.7,219.7,373.6,199.9z
		 M342,184.2l-0.5,6.6c-32.5-4.7-65.1,3.5-91.4,22.8c-21.4-15.5-47.4-24-73.8-24c-6.9,0-13.9,0.6-20.9,1.8l-0.5-7.2
		c0-51.6,42-93.6,93.5-93.6S342,132.6,342,184.2z M333.3,222.6c-8.5,18.7-23,34.3-40.9,44c-4.5-10.8-10.5-20.8-17.9-30
		C292.2,225.4,312.7,220.3,333.3,222.6z M163.8,223.2c4.4-0.6,8.5-0.9,12.6-0.9c17.6,0,34.5,5,49.5,14.5
		c-7.7,9.4-13.9,19.9-18.6,31.3C188.1,258.7,172.8,242.8,163.8,223.2z M302.5,315.6L302.5,315.6c0-5.6-0.4-11.3-1.2-17
		c28.9-13.4,51.8-37.3,63.9-66.9c32,15.8,52.3,48,52.3,83.9c0.1,25-9.6,48.4-27.3,66.2c-17.7,17.7-41.2,27.5-66.2,27.5
		c-17.6,0-34.5-5-49.5-14.6C292.6,372.3,302.5,344.5,302.5,315.6z M225.9,394.7L225.9,394.7c-15.1,9.6-32.1,14.6-49.5,14.6
		c-51.6,0-93.6-42-93.6-93.7c0-34.5,19.3-66.2,49.7-82.5c12.7,29.9,36.4,53.8,66.4,66.7c-0.7,5.5-1.1,10.7-1.1,15.7
		C197.8,344.4,207.7,372.2,225.9,394.7z M239.1,277.2c3-6.7,6.7-12.8,11-18.4c4.3,5.5,7.9,11.6,10.9,18
		C253.3,277.9,246.3,278,239.1,277.2z M230.3,315.6l0.5-6.6c12.7,1.8,25.5,1.7,38.7-0.6l0.5,7.2c0,20.5-7,40.4-19.8,56.9
		C237.3,356,230.3,336.1,230.3,315.6z"/>
</g>
<g id="Layer_44" display="none">
	<g display="inline">
		<polygon points="206.1,77 293.8,77 293.8,233.7 381.5,233.7 250,365.3 118.4,233.7 206.1,233.7 		"/>
		<polygon points="423.3,343 423.3,396.3 76.7,396.3 76.7,343 50,343 50,396.3 50,423 76.7,423 423.3,423 450,423 450,396.3 
			450,343 		"/>
	</g>
</g>
<g id="Layer_45" display="none">
	<path display="inline" d="M398.9,61.3c-28.4-23.6-52-16.6-54.4-16.6h-2.4l-61.5,78l-42.6-33.1l-44.9,56.7l37.8,30.7L86.8,356.9
		l16.6,30.7L75,423.1l42.6,33.1l28.4-35.5l30.7,14.2l146.6-184.4l37.8,30.7l44.9-56.7l-42.6-33.1l61.5-78V111
		C425,111,427.3,85,398.9,61.3z M169.6,404.2L138.8,390l-23.6,33.1l-7.1-4.7l23.6-30.7l-16.6-30.7L250,189l56.7,44.9L169.6,404.2z"
		/>
</g>
<g id="Layer_47" display="none">
	<path display="inline" d="M368.9,156.7L440,85.6l-24.4-24.4l-71.1,71.1H177.8V61.1h-46.7v71.1H60v46.7h71.1v188.9H320v71.1h46.7
		v-71.1h71.1v-46.7h-71.1V156.7H368.9z M177.8,181.1h117.8L177.8,298.9V181.1z M202.2,323.3L320,205.6v117.8L202.2,323.3
		L202.2,323.3z"/>
</g>
<g id="Layer_50" display="none">
	<g display="inline">
		<path d="M445.1,240.1H289.4c-3.9-17.7-19.7-29.6-39.4-29.6s-33.5,13.8-39.4,29.6H54.9c-5.9,0-9.9,3.9-9.9,9.9s3.9,9.9,9.9,9.9
			h155.7c3.9,17.7,19.7,29.6,39.4,29.6s33.5-13.8,39.4-29.6h155.7c5.9,0,9.9-3.9,9.9-9.9S449.1,240.1,445.1,240.1z M250,271.7
			c-7.9,0-13.8-3.9-17.7-9.9c-2-3.9-2-5.9-2-9.9c0-3.9,2-5.9,2-9.9c3.9-5.9,9.9-9.9,17.7-9.9c7.9,0,13.8,3.9,17.7,9.9
			c2,3.9,2,5.9,2,9.9c0,3.9-2,5.9-2,9.9C263.8,265.8,255.9,271.7,250,271.7z"/>
		<path d="M445.1,145.5h-84.8c-3.9-17.7-19.7-29.6-39.4-29.6s-33.5,13.8-39.4,29.6H54.9c-5.9,0-9.9,3.9-9.9,9.9
			c0,5.9,3.9,9.9,9.9,9.9h226.7c3.9,17.7,19.7,29.6,39.4,29.6s33.5-13.8,39.4-29.6h84.8c5.9,0,9.9-3.9,9.9-9.9
			C455,149.5,449.1,145.5,445.1,145.5z M321,177.1c-7.9,0-13.8-3.9-17.7-9.9c-2-3.9-2-5.9-2-9.9s2-5.9,2-9.9
			c3.9-5.9,9.9-9.9,17.7-9.9s13.8,3.9,17.7,9.9c2,3.9,2,5.9,2,9.9s-2,5.9-2,9.9C334.8,173.1,328.8,177.1,321,177.1z"/>
		<path d="M445.1,334.8H218.5c-3.9-17.7-19.7-29.6-39.4-29.6s-33.5,13.8-39.4,29.6H54.9c-5.9,0-9.9,3.9-9.9,9.9
			c0,5.9,3.9,9.9,9.9,9.9h84.8c3.9,17.7,19.7,29.6,39.4,29.6s33.5-13.8,39.4-29.6h226.7c5.9,0,9.9-3.9,9.9-9.9
			C455,338.7,449.1,334.8,445.1,334.8z M179,366.3c-7.9,0-13.8-3.9-17.7-9.9c-2-3.9-2-5.9-2-9.9s2-5.9,2-9.9
			c3.9-5.9,9.9-9.9,17.7-9.9s13.8,3.9,17.7,9.9c2,3.9,2,5.9,2,9.9s-2,5.9-2,9.9C192.8,360.4,185,366.3,179,366.3z"/>
	</g>
</g>
<g id="Layer_51" display="none">
	<path display="inline" d="M70,222.9h25c13.5,0,25,11.6,25,25.1s-11.5,25.1-25,25.1H70c-13.5,0-25-11.6-25-25.1S56.5,222.9,70,222.9
		z M123.9,340.9c9.6-9.7,26.9-9.7,36.6,0s9.6,27.1,0,36.7L143.2,395c-9.6,9.7-26.9,9.7-36.6,0c-9.6-9.7-9.6-27.1,0-36.7L123.9,340.9
		z M251,145.6c57.7,0,103.9,46.4,103.9,104.4S308.7,354.4,251,354.4S147,308,147,250S195.1,145.6,251,145.6z M251,300.3
		c28.9,0,52-23.2,52-52.2s-23.1-52.2-52-52.2c-28.9,0-52,23.2-52,52.2S222.1,300.3,251,300.3z M251,379.6c13.5,0,25,11.6,25,25.1
		v25.1c0,13.5-11.5,25.1-25,25.1c-13.5,0-25-11.6-25-25.1v-25.1C225.9,391.2,237.5,379.6,251,379.6z M378,340.9l17.3,17.4
		c9.6,9.7,9.6,27.1,0,36.7c-9.6,9.7-26.9,9.7-36.6,0l-17.3-17.4c-9.6-9.7-9.6-27.1,0-36.7C353,331.2,368.4,331.2,378,340.9z
		 M379.9,250c0-13.5,11.5-25.1,25-25.1h25c13.5,0,25,11.6,25,25.1c0,13.5-11.5,25.1-25,25.1h-25C391.5,275.1,379.9,263.5,379.9,250z
		 M378,157.2c-9.6,9.7-26.9,9.7-36.6,0s-9.6-27.1,0-36.7l17.3-17.4c9.6-9.7,26.9-9.7,36.6,0c9.6,9.7,9.6,27.1,0,36.7L378,157.2z
		 M251,120.4c-13.5,0-25-11.6-25-25.1V70.1c0-13.5,11.5-25.1,25-25.1c13.5,0,25,11.6,25,25.1v25.1
		C277.9,108.8,266.4,120.4,251,120.4z M123.9,157.2l-17.3-17.4c-9.6-9.7-9.6-27.1,0-36.7s26.9-9.7,36.6,0l17.3,17.4
		c9.6,9.7,9.6,27.1,0,36.7S133.5,166.8,123.9,157.2z"/>
</g>
<g id="Layer_52" display="none">
</g>
<g id="Layer_53" display="none">
	<path display="inline" d="M449.8,73.3c-2.4-11.8-16.5-18.9-28.3-16.5c0,0-7.1,2.4-14.1,4.7c-25.9,9.4-99,37.7-146.1,96.6V56.8
		c0-7.1-4.7-11.8-11.8-11.8c-7.1,0-11.8,4.7-11.8,11.8v139c-2.4,2.4-2.4,7.1-4.7,9.4c-16.5,7.1-30.6,23.6-30.6,42.4
		c0,11.8,4.7,23.6,14.1,33C181.2,365.5,68.1,398.4,65.7,398.4c-11.8,2.4-18.9,16.5-16.5,28.3c2.4,9.4,11.8,16.5,23.6,16.5
		c2.4,0,4.7,0,7.1,0c4.7-2.4,103.7-30.6,157.9-106v106c0,7.1,4.7,11.8,11.8,11.8c7.1,0,11.8-4.7,11.8-11.8V294.8
		c0-2.4,0-2.4,2.4-4.7c18.9-4.7,35.3-21.2,35.3-42.4c0-14.1-4.7-23.6-14.1-33c30.6-68.3,110.7-101.3,139-110.7
		c4.7-2.4,4.7-2.4,7.1-2.4l0,0c2.4,0,2.4,0,2.4,0C447.4,99.2,454.5,85.1,449.8,73.3z M251.9,275.9c-16.5,0-28.3-11.8-28.3-28.3
		s11.8-28.3,28.3-28.3s28.3,11.8,28.3,28.3S268.3,275.9,251.9,275.9z"/>
</g>
<g id="Layer_54" display="none">
	<g display="inline">
		<path d="M250,98.1C113.3,98.1,50,250,50,250s65.8,151.9,200,151.9S450,250,450,250S384.2,98.1,250,98.1z M250,356.3
			c-68.4,0-126.6-48.1-126.6-108.9S179.1,138.6,250,138.6s126.6,48.1,126.6,108.9S318.4,356.3,250,356.3z"/>
		<path d="M250,181.6c-7.6,0-15.2,2.5-22.8,5.1v40.5h-40.5c-2.5,7.6-5.1,15.2-5.1,22.8c0,38,30.4,65.8,65.8,65.8
			c38,0,65.8-30.4,65.8-65.8S285.4,181.6,250,181.6z"/>
	</g>
</g>
<g id="Layer_55" display="none">
	<g display="inline">
		<path d="M399.7,302.5h-8.9v-2.2V83.5c0-17.9-15.6-33.5-33.5-33.5H140.5C122.6,50,107,65.6,107,83.5v216.8v2.2H98
			c-13.4,0-24.6,11.2-24.6,24.6l0,0c0,13.4,11.2,24.6,24.6,24.6h114l-84.9,58.1c-11.2,6.7-13.4,20.1-6.7,31.3
			c4.5,6.7,11.2,8.9,17.9,8.9c4.5,0,8.9-2.2,13.4-4.5l80.4-53.6v35.8c0,13.4,8.9,22.3,22.3,22.3c13.4,0,22.3-8.9,22.3-22.3v-38
			l80.4,55.9c4.5,2.2,8.9,4.5,13.4,4.5c6.7,0,13.4-4.5,17.9-8.9c6.7-11.2,4.5-24.6-6.7-31.3l-84.9-58.1h105
			c13.4,0,24.6-11.2,24.6-24.6l0,0C424.3,313.7,413.1,302.5,399.7,302.5z M250,96.9c53.6,0,96.1,42.5,96.1,96.1
			c0,53.6-42.5,96.1-96.1,96.1s-96.1-42.5-96.1-96.1S196.4,96.9,250,96.9z"/>
		<circle cx="250" cy="193" r="46.9"/>
	</g>
</g>
<g id="Layer_56" display="none">
	<path display="inline" d="M289.1,273.9l-3.4-1.7v-71.7H313v-13.7h-27.3v-39.3H313v-12h-27.3V96.2H313v-12h-27.3v-5.1
		c0-18.8-15.4-34.2-34.2-34.2s-34.2,15.4-34.2,34.2v193l-3.4,1.7c-34.2,15.4-58.1,49.5-58.1,87.1c0,53,42.7,94,94,94s94-42.7,94-94
		C347.2,323.5,323.3,289.3,289.1,273.9z M251.5,419.1c-32.5,0-58.1-25.6-58.1-58.1c0-29,20.5-51.2,46.1-56.4V203.9
		c0-5.1,5.1-10.3,10.3-10.3c5.1,0,10.3,5.1,10.3,10.3V303c27.3,5.1,46.1,29,46.1,56.4C309.6,393.5,284,419.1,251.5,419.1z"/>
</g>
<g id="Layer_57" display="none">
	<path display="inline" d="M60,60v380h380V60H60z M417.6,417.6H250V82.4h167.6V417.6z"/>
</g>
<g id="Layer_58" display="none">
	<path display="inline" d="M250,173.9l60.4,102.4l60.4,102.4H252.6H134.5l60.4-102.4L250,173.9 M250,68.9L145,250L40,431.1h210h210
		L355,250L250,68.9L250,68.9z"/>
</g>
<g id="Layer_59" display="none">
	<path display="inline" d="M380.3,296.1L249.6,45L118.9,296.1C93.3,383.3,177.9,455,249.6,455C321.4,452.4,408.5,385.8,380.3,296.1z
		 M247.1,424.3c-2.6,0-2.6,0-5.1,0c0,0-2.6,0-7.7,0h-2.6c-2.6,0-2.6,0-5.1,0s-7.7-2.6-12.8-2.6c-2.6,0-5.1-2.6-5.1-2.6
		c-2.6,0-5.1-2.6-7.7-2.6c-5.1-2.6-7.7-5.1-12.8-7.7c-5.1-2.6-7.7-7.7-12.8-10.2c-5.1-2.6-7.7-7.7-10.2-12.8
		c-2.6-5.1-7.7-7.7-10.2-12.8c-2.6-5.1-5.1-10.2-7.7-12.8c-2.6-5.1-2.6-10.2-5.1-12.8c0-2.6,0-5.1-2.6-5.1c0-2.6,0-5.1,0-5.1
		c0-2.6,0-7.7,0-10.2c0-2.6,0-5.1,0-7.7c0-5.1,0-7.7,0-7.7s0,2.6,0,7.7c0,2.6,0,5.1,2.6,7.7c0,2.6,2.6,5.1,2.6,10.2
		c0,2.6,2.6,2.6,2.6,5.1c0,2.6,2.6,2.6,2.6,5.1c2.6,2.6,5.1,7.7,7.7,10.2c2.6,2.6,5.1,7.7,7.7,10.2c2.6,2.6,7.7,5.1,10.2,7.7
		c2.6,2.6,7.7,5.1,10.2,7.7s7.7,2.6,10.2,5.1c5.1,0,7.7,2.6,10.2,2.6c2.6,0,2.6,0,5.1,0s2.6,0,5.1,0c2.6,0,5.1,0,7.7,0h2.6
		c2.6,0,2.6,0,2.6,0c5.1,0,7.7,0,7.7,0c12.8,0,20.5,7.7,23.1,17.9C267.6,414,259.9,424.3,247.1,424.3z"/>
</g>
<g id="Layer_60" display="none">
</g>
<g id="Layer_61" display="none">
	<g display="inline">
		<path d="M60,60v380h380V60H60z M417.6,417.6l-49.2-49.2l0,0H133.8l0,0V133.8l0,0l0,0L84.6,84.6h335.3v333.1H417.6z"/>
		<polygon points="131.5,131.5 198.6,196.4 198.6,196.4 301.4,196.4 301.4,301.4 368.5,366.2 368.5,131.5 		"/>
		<polygon points="301.4,301.4 198.6,196.4 198.6,301.4 		"/>
	</g>
</g>
<g id="Layer_62" display="none">
	<path display="inline" d="M733.4,233.9h-10.9v10.9v1.1h1.1h10.9V235v-1.1H733.4z M724.1,235.5h7.7l-1.1,1.1h-5.5v5.5l-1.1,1.1
		L724.1,235.5L724.1,235.5z M730.3,241.7h-3.5v-3.5h3.5V241.7z"/>
	<g id="Turn_Around._Attribute_as_Freepik_from_Flaticon.com_copy_2_" display="inline">
		<g>
			<path d="M852.7,196.7c-0.1,0-0.1,0-0.2,0.1l-1.3,1.3c-1.1-1-2.7-1.7-4.3-1.7l0,0l0,0l0,0l0,0l0,0l0,0l0,0c-3.4,0-6.1,2.7-6.1,6
				s2.8,6,6.1,6l0,0v-2.2c-2.2,0-3.9-1.7-4-3.8c0-2.1,1.7-3.8,3.9-3.8c1,0,2,0.4,2.8,1l-1.2,1.2c-0.1,0-0.1,0.1-0.1,0.1
				c0,0.1,0.1,0.2,0.2,0.2h4.1c0.1,0,0.2-0.1,0.2-0.2v-4C852.8,196.9,852.8,196.8,852.7,196.7z"/>
		</g>
	</g>
	<g display="inline">
		<path d="M631.6,238.5c0-0.1-0.1-0.1-0.1-0.2c-0.1-0.1-0.1-0.2-0.1-0.4c0-0.1-0.1-0.1-0.1-0.2c0-0.1-0.1-0.3-0.1-0.4s0-0.1,0-0.1
			c0-0.2-0.1-0.4-0.1-0.6s0-0.4,0.1-0.6c0-0.1,0-0.1,0-0.1c0-0.1,0.1-0.3,0.1-0.4s0.1-0.1,0.1-0.2c0-0.1,0.1-0.2,0.1-0.4
			c0-0.1,0.1-0.1,0.1-0.2s0.1-0.1,0.1-0.1l-1-0.6c-0.4,0.8-0.7,1.8-0.7,2.7c0,1,0.2,1.9,0.7,2.7l1-0.6
			C631.7,238.6,631.6,238.6,631.6,238.5z"/>
		<path d="M630.9,233.2L630.9,233.2l1,0.6l0,0l0,0l0,0l0,0c0-0.1,0.1-0.1,0.1-0.1c0.1-0.1,0.1-0.1,0.1-0.2c0.1-0.1,0.1-0.1,0.2-0.3
			c0.1-0.1,0.1-0.1,0.1-0.1c0.1-0.1,0.2-0.1,0.3-0.2c0.1-0.1,0.1-0.1,0.1-0.1c0.3-0.2,0.7-0.4,1-0.6c0.1,0,0.1-0.1,0.1-0.1
			c0.2-0.1,0.2-0.1,0.4-0.1c0.1,0,0.1,0,0.2-0.1c0.1,0,0.2-0.1,0.4-0.1c0.1,0,0.1,0,0.2,0c0.1,0,0.1,0,0.1,0l0,0l0,0v-1.2
			C633.8,230.7,632,231.7,630.9,233.2z"/>
		<path d="M636.7,231.8c0.2,0,0.2,0.1,0.4,0.1c0.1,0,0.1,0,0.2,0.1c0.2,0,0.2,0.1,0.4,0.1c0.1,0,0.1,0.1,0.1,0.1
			c0.4,0.1,0.7,0.4,1,0.6c0.1,0.1,0.1,0.1,0.2,0.1c0.1,0.1,0.2,0.1,0.3,0.2c0.1,0.1,0.1,0.1,0.1,0.1c0.1,0.1,0.1,0.1,0.2,0.3
			c0.1,0.1,0.1,0.1,0.1,0.2c0,0.1,0.1,0.1,0.1,0.1l0,0l1-0.6c-1-1.6-2.8-2.6-4.7-2.7v1.2l0,0l0,0c0.1,0,0.1,0,0.1,0
			C636.5,231.8,636.6,231.8,636.7,231.8z"/>
		<path d="M635.3,241.3c-0.1,0-0.2-0.1-0.4-0.1c-0.1,0-0.1,0-0.2-0.1c-0.1,0-0.2-0.1-0.4-0.1c-0.1,0-0.2-0.1-0.2-0.1
			c-0.4-0.1-0.7-0.4-1-0.6c-0.1-0.1-0.1-0.1-0.1-0.1c-0.1-0.1-0.2-0.1-0.3-0.2c-0.1-0.1-0.1-0.1-0.1-0.1c-0.1-0.1-0.1-0.1-0.2-0.3
			c-0.1-0.1-0.1-0.1-0.1-0.2c0-0.1-0.1-0.1-0.1-0.1l0,0l0,0l0,0l0,0l0,0l-1,0.6l0,0c1,1.6,2.8,2.6,4.7,2.7v-1.2l0,0l0,0
			c-0.1,0-0.1,0-0.1,0C635.4,241.3,635.3,241.3,635.3,241.3z"/>
		<path d="M641.3,233.8l-0.2,0.1l-0.8,0.4l0,0l0,0l0,0c0,0.1,0.1,0.1,0.1,0.1s0.1,0.1,0.1,0.2c0.1,0.1,0.1,0.2,0.1,0.4
			c0,0.1,0.1,0.1,0.1,0.2c0,0.1,0.1,0.2,0.1,0.4c0,0.1,0,0.1,0,0.2c0,0.2,0.1,0.4,0.1,0.6s0,0.4-0.1,0.6c0,0.1,0,0.1,0,0.2
			c0,0.1-0.1,0.2-0.1,0.4c0,0.1-0.1,0.1-0.1,0.2c0,0.1-0.1,0.2-0.1,0.4c0,0.1-0.1,0.1-0.1,0.2s-0.1,0.1-0.1,0.1l0,0l0,0l0.8,0.4
			l0.2,0.1c0.4-0.8,0.7-1.8,0.7-2.7C641.9,235.6,641.7,234.7,641.3,233.8z"/>
		<path d="M639.9,239.2c0,0.1-0.1,0.1-0.1,0.1c-0.1,0.1-0.1,0.1-0.1,0.2c-0.1,0.1-0.1,0.1-0.2,0.3c-0.1,0.1-0.1,0.1-0.1,0.1
			c-0.1,0.1-0.2,0.1-0.3,0.2c-0.1,0.1-0.1,0.1-0.1,0.1c-0.3,0.2-0.7,0.4-1,0.6c-0.1,0-0.1,0.1-0.1,0.1c-0.1,0.1-0.2,0.1-0.4,0.1
			c-0.1,0-0.2,0-0.2,0.1c-0.1,0-0.2,0.1-0.4,0.1c-0.1,0-0.1,0-0.2,0c-0.1,0-0.1,0-0.1,0l0,0l0,0v1.2c1.9-0.1,3.7-1.1,4.7-2.7l0,0
			L639.9,239.2L639.9,239.2z"/>
		<path d="M633.1,235.9c0.1-0.1,0.1-0.4,0.1-0.5l0,0l0,0l0,0l-0.9-0.5l-0.1-0.1l0,0l0,0c0,0,0,0.1-0.1,0.1c0,0.1-0.1,0.1-0.1,0.2
			s-0.1,0.2-0.1,0.3s-0.1,0.1-0.1,0.2s-0.1,0.2-0.1,0.3s0,0.1,0,0.1c0,0.1,0,0.3,0,0.5c0,0.1,0,0.3,0,0.5c0,0.1,0,0.1,0,0.1
			s0.1,0.2,0.1,0.3s0,0.1,0.1,0.2c0,0.1,0.1,0.2,0.1,0.3s0.1,0.1,0.1,0.2c0,0,0,0.1,0.1,0.1l0,0l0,0l0.1-0.1l0.9-0.5l0,0l0,0l0,0
			c-0.1-0.1-0.1-0.3-0.1-0.5c0-0.1,0-0.1,0-0.1c0-0.1-0.1-0.4-0.1-0.5s0-0.4,0.1-0.5C633.1,235.9,633.1,235.9,633.1,235.9z"/>
		<path d="M635.3,232.5c-0.1,0-0.2,0.1-0.3,0.1c-0.1,0-0.1,0-0.1,0.1c-0.1,0-0.2,0.1-0.3,0.1c-0.1,0-0.1,0-0.1,0.1
			c-0.3,0.1-0.6,0.3-0.9,0.5c-0.1,0-0.1,0.1-0.1,0.1c-0.1,0.1-0.2,0.1-0.2,0.2s-0.1,0.1-0.1,0.1s-0.1,0.1-0.2,0.2
			c-0.1,0.1-0.1,0.1-0.1,0.1l-0.1,0.1l0,0l0,0l0.7,0.4l0.3,0.1l0,0c0.1-0.1,0.2-0.3,0.4-0.4l0.1-0.1c0.1-0.1,0.3-0.2,0.4-0.3l0,0
			c0.1-0.1,0.3-0.1,0.4-0.2c0,0,0.1,0,0.1-0.1c0.1-0.1,0.4-0.1,0.5-0.1l0,0l0,0l0,0v-1.2l0,0C635.5,232.4,635.5,232.4,635.3,232.5
			C635.5,232.4,635.4,232.5,635.3,232.5z"/>
		<path d="M635.1,239.3C635.1,239.3,635,239.3,635.1,239.3c-0.4-0.2-0.7-0.4-1-0.6l-0.1-0.1c-0.1-0.1-0.2-0.2-0.4-0.4l0,0l-0.3,0.1
			l-0.7,0.4l0,0l0,0l0.1,0.1c0.1,0.1,0.1,0.1,0.2,0.1c0.1,0.1,0.1,0.1,0.2,0.2c0.1,0.1,0.1,0.1,0.1,0.1c0.1,0.1,0.1,0.1,0.2,0.2
			c0.1,0,0.1,0.1,0.1,0.1c0.1,0.1,0.3,0.2,0.4,0.3l0,0c0.1,0.1,0.3,0.1,0.4,0.2c0.1,0,0.1,0.1,0.1,0.1c0.1,0.1,0.2,0.1,0.3,0.1
			s0.1,0,0.1,0.1c0.1,0,0.2,0.1,0.3,0.1c0.1,0,0.1,0,0.2,0c0.1,0,0.1,0,0.2,0l0,0v-1.2l0,0l0,0l0,0
			C635.4,239.5,635.3,239.4,635.1,239.3z"/>
		<polygon points="632.4,238.6 632.4,238.6 632.4,238.6 632.4,238.6 		"/>
		<path d="M639.8,238c0.1-0.1,0.1-0.2,0.1-0.3s0-0.1,0.1-0.1c0-0.1,0.1-0.2,0.1-0.3s0-0.1,0-0.1c0-0.1,0-0.3,0-0.5
			c0-0.1,0-0.4,0-0.5c0-0.1,0-0.1,0-0.1c0-0.1-0.1-0.2-0.1-0.4c0-0.1,0-0.1-0.1-0.1c0-0.1-0.1-0.2-0.1-0.3s-0.1-0.1-0.1-0.1
			s0-0.1-0.1-0.1l0,0l0,0l-1,0.6l0,0l0,0c0.1,0.1,0.1,0.3,0.1,0.5c0,0.1,0,0.1,0,0.1c0,0.1,0.1,0.4,0.1,0.5s0,0.4-0.1,0.5
			c0,0.1,0,0.1,0,0.1c-0.1,0.1-0.1,0.4-0.1,0.5l0,0l0,0l0,0l1,0.6l0,0l0,0c0,0,0-0.1,0.1-0.1C639.7,238.2,639.8,238.1,639.8,238z"/>
		<path d="M636.8,233.8L636.8,233.8c0.4,0.1,0.7,0.3,1,0.5l0.1,0.1c0.1,0.1,0.2,0.2,0.4,0.4l0,0l0,0l0,0l0.7-0.4l0.3-0.1l0,0l0,0
			l-0.1-0.1c-0.1-0.1-0.1-0.1-0.2-0.1c-0.1-0.1-0.1-0.1-0.2-0.2c-0.1-0.1-0.1-0.1-0.1-0.1c-0.1-0.1-0.1-0.1-0.3-0.2
			c-0.1,0-0.1-0.1-0.1-0.1c-0.3-0.2-0.5-0.4-0.9-0.5c-0.1,0-0.1,0-0.2-0.1c-0.1-0.1-0.2-0.1-0.3-0.1c-0.1,0-0.1,0-0.1-0.1
			c-0.1,0-0.2-0.1-0.3-0.1c-0.1,0-0.1,0-0.2,0c-0.1,0-0.1,0-0.1,0l0,0v1.2l0,0l0,0l0,0C636.5,233.7,636.7,233.7,636.8,233.8z"/>
		<path d="M636.6,240.7c0.1,0,0.2-0.1,0.3-0.1c0.1,0,0.1,0,0.1-0.1c0.1,0,0.2-0.1,0.3-0.1s0.1,0,0.1-0.1c0.3-0.1,0.6-0.3,0.9-0.5
			c0.1,0,0.1-0.1,0.1-0.1c0.1-0.1,0.2-0.1,0.2-0.2s0.1-0.1,0.1-0.1s0.1-0.1,0.2-0.2c0.1-0.1,0.1-0.1,0.2-0.1l0.1-0.1l0,0l0,0
			l-0.3-0.1l-0.7-0.4l0,0l0,0l0,0c-0.1,0.1-0.2,0.3-0.4,0.4l-0.1,0.1c-0.1,0.1-0.3,0.2-0.4,0.3l0,0c-0.1,0.1-0.3,0.1-0.4,0.2
			c0,0-0.1,0-0.1,0.1c-0.1,0.1-0.4,0.1-0.5,0.1l0,0l0,0l0,0v1.2l0,0C636.5,240.7,636.5,240.7,636.6,240.7
			C636.5,240.7,636.5,240.7,636.6,240.7z"/>
		<path d="M634.2,238L634.2,238c0.1,0.1,0.1,0.2,0.3,0.3l0.1,0.1c0.2,0.1,0.4,0.3,0.7,0.4h0.1c0.1,0,0.2,0.1,0.3,0.1l0,0l0,0v-1.7
			l0,0L634.2,238L634.2,238z"/>
		<path d="M636.7,238.7L636.7,238.7c0.3-0.1,0.5-0.2,0.7-0.4l0.1-0.1c0.1-0.1,0.1-0.1,0.2-0.2l0,0l0,0l0,0l-1.5-0.8l0,0v1.7l0,0l0,0
			C636.5,238.8,636.5,238.7,636.7,238.7z"/>
		<path d="M633.8,237.4l1.5-0.8l0,0l-1.5-0.8l0,0l0,0l0,0c-0.1,0.1-0.1,0.2-0.1,0.3v0.1c0,0.1,0,0.2,0,0.4c0,0.1,0,0.2,0,0.4v0.1
			C633.8,237.1,633.8,237.2,633.8,237.4L633.8,237.4L633.8,237.4L633.8,237.4z"/>
		<path d="M637.7,235.1L637.7,235.1L637.7,235.1c-0.1-0.1-0.1-0.2-0.2-0.3l-0.1-0.1c-0.1-0.1-0.2-0.1-0.3-0.2l0,0
			c-0.1-0.1-0.2-0.1-0.4-0.1h-0.1c-0.1,0-0.2-0.1-0.3-0.1l0,0l0,0v1.7l0,0L637.7,235.1L637.7,235.1z"/>
		<path d="M635.3,234.4L635.3,234.4c-0.3,0.1-0.5,0.2-0.7,0.4l-0.1,0.1c-0.1,0.1-0.1,0.1-0.2,0.2l0,0l0,0l0,0l1.5,0.8l0,0v-1.7l0,0
			l0,0C635.5,234.3,635.4,234.4,635.3,234.4z"/>
		<path d="M638.1,235.7l-1.5,0.8l0,0l1.5,0.8l0,0l0,0l0,0c0.1-0.1,0.1-0.2,0.1-0.3V237c0-0.1,0-0.2,0-0.4c0-0.1,0-0.2,0-0.4v-0.1
			C638.2,235.9,638.1,235.9,638.1,235.7L638.1,235.7L638.1,235.7L638.1,235.7z"/>
	</g>
</g>
<g id="Layer_10_copy" display="none">
	<path display="inline" d="M47.8,67.4l-0.3,135c0,4.9,2.5,7.5,7.5,7.5h137.5c4.9,0,7.5-2.5,7.5-7.5c0-2.4,0-4.9-2.5-4.9l-40-40
		c25-22.6,57.4-35.1,92.4-35.1c72.5,0,130,57.5,130,127.5c-2.4,70-59.9,127.5-132.4,127.5V450c112.5,0,204.9-90,204.9-200
		S362.6,50,250.1,50c-52.4,0-105,22.5-142.5,57.5L65.1,65c-0.4-0.6-0.9-0.9-1.3-1.2c-1.3-2.7-4.2-4.6-7.5-4.6
		C51.6,59.1,47.8,62.7,47.8,67.4C47.8,67.4,47.8,67.5,47.8,67.4z"/>
</g>
<g id="Layer_11_copy" display="none">
	<path display="inline" d="M449.7,69.6c0-4.6-3.7-8.1-8.3-8.1c-3.3,0-6.1,1.9-7.4,4.6c-0.4,0.3-0.9,0.6-1.3,1.2l-42,42
		c-37-34.6-88.9-56.8-140.7-56.8C138.8,52.4,50,141.4,50,250s91.3,197.6,202.4,197.6v-71.8c-71.6,0-128.4-56.8-130.8-125.9
		c0-69.1,56.8-125.9,128.4-125.9c34.6,0,66.6,12.3,91.3,34.6l-39.5,39.5c-2.5,0-2.5,2.5-2.5,4.9c0,4.9,2.5,7.4,7.4,7.4h135.8
		c4.9,0,7.4-2.5,7.4-7.4L449.7,69.6C449.7,69.8,449.7,69.6,449.7,69.6z"/>
</g>
<g id="Layer_63" display="none">
	<path display="inline" d="M424.2,214.9c0.9,3.8,1.5,7.7,1.5,11.7c0,12.4,0,11,0,23.4c0,51.8-78.7,93.7-175.7,93.7
		S74.3,301.8,74.3,250c0-12.4,0-11,0-23.4c0-4,0.6-7.9,1.5-11.7c10.8,46.2,84.6,82,174.2,82S413.4,261.1,424.2,214.9z M250,367.1
		c-89.6,0-163.4-35.8-174.2-82c-0.9,3.8-1.5,7.7-1.5,11.7c0,12.4,0,11,0,23.4C74.3,372,153,414,250,414s175.7-42,175.7-93.7
		c0-12.4,0-11,0-23.4c0-4-0.6-7.9-1.5-11.7C413.4,331.4,339.6,367.1,250,367.1z M250,86c-97,0-175.7,42-175.7,93.7
		S153,273.4,250,273.4s175.7-42,175.7-93.7C425.7,128,347,86,250,86z"/>
</g>
<g id="Layer_64" display="none">
	<path display="inline" d="M406,130.7H173.1l29.4-50.9c3.3,1.8,7.4,0.6,9.2-2.6l6.5-11.2c1.9-3.3,0.8-7.5-2.5-9.4l-11.2-6.5
		c-3.3-1.9-7.5-0.8-9.4,2.5l-6.5,11.2c-1.9,3.2-0.8,7.3,2.3,9.3l-33.2,57.6h-0.2l-33.3-57.6c3.2-2,4.2-6.1,2.3-9.3l-6.4-11.2
		c-1.9-3.3-6.1-4.4-9.4-2.5l-11.2,6.5c-3.3,1.9-4.4,6.1-2.5,9.4l6.5,11.2c1.8,3.2,5.9,4.4,9.2,2.6l29.4,50.9H94
		c-24.3,0-44,19.7-44,44v178.7c0,24.3,19.7,44,44,44h249.3v53.3l53.4-53.3h9.3c24.3,0,44-19.7,44-44V174.7
		C450,150.4,430.3,130.7,406,130.7z M396.7,328.5c0,8.6-7,15.5-15.5,15.5H118.9c-8.6,0-15.5-7-15.5-15.5v-129
		c0-8.6,7-15.5,15.5-15.5h262.3c8.6,0,15.5,7,15.5,15.5V328.5z"/>
</g>
<g id="Layer_65" display="none">
	<path display="inline" d="M424.1,116.7v7.2c0.2,0.1,0.5,0.3,0.7,0.4V150h-0.7h-1.3h-23.6v-30.4v-3h-13.6h-12.6h-27.6h-2.9V150
		H156.6v-33.3h-2.9h-26.9h-13.3H100v3V150H76.4h-0.6v-26.6v-6.7H50v266.7h25.8v-6.7V350h0.6H100v30.4v3h13.5h14h26.2h2.9V350h186.1
		v33.3h2.9h26.9h13.3h13.6v-3V350h23.6h1.3v26.2v7.1H450V116.7H424.1z M100,170v40H75.8v-40H100z M75.2,230h0.7H100v40H75.8h-0.7
		V230z M75.8,330v-40H100v40H75.8z M342.7,318.7H156.6V181.3h186.1V318.7z M424.1,330h-24.8v-40h24.8V330z M424.1,270h-24.8v-40
		h24.8V270z M424.1,210h-24.8v-40h24.8V210z"/>
</g>
<g id="Layer_66">
	<g>
		<g>
			<path d="M434.6,150.8c4.6-4.6,4.6-12,0-16.6l-68.8-68.8c-4.6-4.6-12-4.6-16.6,0l-17.5,17.5l-5-5c-13-13-34-13-47,0L113.2,244.5
				c-13,13-13,34,0,47l4.4,4.4L62,438l142.2-55.6l-43.3-43.3l47.7,47.7c13,13,34,13,47,0l166.6-166.5c13-13,13-34,0-47L373,124.3
				l44.1,44.1L434.6,150.8z M380.3,188.5c4.6,4.6,4.6,12,0,16.6l-140,140c-4.6,4.6-12,4.6-16.6,0l-68.8-68.8c-4.6-4.6-4.6-12,0-16.6
				l140-140c4.6-4.6,12-4.6,16.6,0L380.3,188.5z"/>
		</g>
	</g>
</g>
</svg>
